<?xml version="1.0" encoding="UTF-8"?>
<svg width="1933px" height="1455px" viewBox="0 0 1933 1455" version="1.1" xmlns="http://www.w3.org/2000/svg" xmlns:xlink="http://www.w3.org/1999/xlink">
    <!-- Generator: Sketch 63.1 (92452) - https://sketch.com -->
    <title>undraw_work_chat_erdt</title>
    <desc>Created with Sketch.</desc>
    <g id="Page-1" stroke="none" stroke-width="1" fill="none" fill-rule="evenodd">
        <g id="undraw_work_chat_erdt" fill-rule="nonzero">
            <path d="M1190.34822,199.631575 C1107.44782,269.844478 999.919279,265.301921 905.69065,228.764743 C811.462021,192.227566 724.90504,127.201047 633.096206,80.9706969 C556.128785,42.2158931 475.361389,16.7668457 393.60815,5.44622231 C276.597594,-10.7567552 145.928637,9.02303854 64.4084157,122.479649 C-26.3787264,248.884335 -19.4061305,476.870601 78.7479446,592.830983 C128.703278,651.848451 194.109454,680.820662 251.14493,726.961592 C308.180406,773.102521 361.003646,849.574852 356.146131,938.530271 C351.647103,1020.79704 299.361596,1084.05304 245.247799,1123.70205 C203.430148,1154.33748 151.933315,1187.79859 146.896556,1251.2692 C142.021116,1312.66525 185.326493,1360.79131 226.678109,1388.15396 C361.577227,1477.4134 527.808215,1476.55497 662.241299,1385.90056 C710.171174,1353.54826 754.193527,1310.51916 804.471501,1285.33837 C936.484788,1219.16727 1081.95931,1285.76759 1221.75179,1310.14359 C1340.0529,1330.76394 1461.38324,1320.06926 1576.65513,1278.88222 C1645.87921,1254.14854 1715.37215,1216.28794 1764.00107,1145.89619 C1799.07915,1095.1054 1820.929,1030.81213 1841.43453,967.323642 C1863.30231,899.638356 1884.32765,831.464239 1904.51053,762.80129 C1916.60951,721.578483 1928.52924,679.568777 1931.66602,635.484517 C1937.33013,555.578442 1913.45481,476.584456 1880.93993,409.16147 C1803.73949,249.045291 1673.71582,136.465001 1532.90164,107.868355 C1392.08747,79.2717092 1243.11769,135.123695 1133.90425,257.343505" id="Path" fill="#2D2A64"></path>
            <ellipse id="Oval" fill="#6C63FF" opacity="0.1" cx="879" cy="956.5" rx="407.5" ry="18"></ellipse>
            <path d="M865.526973,882.5 C661.488871,882.5 495.5,716.971815 495.5,513.5 C495.5,310.028185 661.434926,144.5 865.526973,144.5 C1069.61902,144.5 1235.5,310.046117 1235.5,513.5 C1235.5,716.953883 1069.49315,882.5 865.526973,882.5 Z M865.526973,148.086354 C663.466855,148.086354 499.096336,312.018612 499.096336,513.5 C499.096336,714.981388 663.41291,878.913646 865.526973,878.913646 C1067.64103,878.913646 1231.95761,714.981388 1231.95761,513.5 C1231.95761,312.018612 1067.51516,148.086354 865.526973,148.086354 Z" id="Shape" fill="#FFFFFF"></path>
            <path d="M865.508928,799.5 C708.370994,799.5 580.5,671.642857 580.5,514.5 C580.5,357.357143 708.370994,229.5 865.508928,229.5 C1022.64686,229.5 1150.5,357.357143 1150.5,514.5 C1150.5,671.642857 1022.64686,799.5 865.508928,799.5 Z M865.508928,233.071429 C710.317362,233.071429 584.071317,359.321429 584.071317,514.5 C584.071317,669.678571 710.317362,795.928571 865.508928,795.928571 C1020.70049,795.928571 1146.92868,669.678571 1146.92868,514.5 C1146.92868,359.321429 1020.62907,233.071429 865.508928,233.071429 Z" id="Shape" fill="#FFFFFF"></path>
            <path d="M865.5,712.5 C756.14762,712.5 667.5,623.85238 667.5,514.5 C667.5,405.14762 756.14762,316.5 865.5,316.5 C974.85238,316.5 1063.5,405.14762 1063.5,514.5 C1063.37106,623.798926 974.798926,712.371057 865.5,712.5 L865.5,712.5 Z M865.5,320.1 C758.135845,320.1 671.1,407.135845 671.1,514.5 C671.1,621.864155 758.135845,708.9 865.5,708.9 C972.864155,708.9 1059.9,621.864155 1059.9,514.5 C1059.77106,407.189298 972.810702,320.228938 865.5,320.1 Z" id="Shape" fill="#FFFFFF"></path>
            <ellipse id="Oval" fill="#6C63FF" opacity="0.1" cx="337.5" cy="1167" rx="134" ry="20.5"></ellipse>
            <g id="Group" opacity="0.1" transform="translate(97.500000, 489.500000)" fill="#000000">
                <path d="M484.625704,0.290135747 L24.2070423,0.290135747 C10.9335777,0.329495573 0.183107893,11.0565015 0.143661972,24.3009955 L0.143661972,314.581538 C0.183107893,327.826032 10.9335777,338.553038 24.2070423,338.592398 L385.391197,338.592398 C385.391197,338.592398 394.747183,388.155113 364.003521,393.494842 C364.003521,393.494842 432.853521,398.422443 420.821831,338.592398 L484.625704,338.592398 C497.899169,338.553038 508.649639,327.826032 508.689085,314.581538 L508.689085,24.3009955 C508.649639,11.0565015 497.899169,0.329495573 484.625704,0.290135747 Z" id="Path"></path>
                <g opacity="0.2" transform="translate(67.443662, 77.049774)" id="Rectangle">
                    <rect x="0.472535211" y="0.290135747" width="372.982394" height="22.6848869" rx="5.67"></rect>
                    <rect x="0.472535211" y="101.673303" width="372.982394" height="22.6848869" rx="5.67"></rect>
                    <rect x="0.472535211" y="152.346968" width="312.788028" height="22.6848869" rx="5.67"></rect>
                    <rect x="0.472535211" y="50.9817195" width="161.727465" height="22.6848869" rx="5.67"></rect>
                </g>
            </g>
            <path d="M587.527649,484.5 L128.490254,484.5 C115.257126,484.539331 104.539326,495.258553 104.5,508.493436 L104.5,798.563332 C104.539326,811.798215 115.257126,822.517436 128.490254,822.556767 L488.576804,822.556767 C488.576804,822.556767 497.922261,872.083516 467.254123,877.401464 C467.254123,877.401464 535.894894,882.32549 523.899767,822.556767 L587.527649,822.556767 C600.757855,822.51739 611.470505,811.795318 611.5,798.563332 L611.5,508.493436 C611.470505,495.26145 600.757855,484.539377 587.527649,484.5 L587.527649,484.5 Z" id="Path" fill="#FFFFFF"></path>
            <g id="Group" opacity="0.2" transform="translate(172.500000, 560.500000)">
                <rect id="Rectangle" fill="#08070E" x="0.107884615" y="0.0727272727" width="373.460577" height="22.6345455" rx="5.67"></rect>
                <rect id="Rectangle" fill="#08070E" x="0.107884615" y="101.230909" width="373.460577" height="22.6345455" rx="5.67"></rect>
                <rect id="Rectangle" fill="#08070E" x="0.107884615" y="151.81" width="313.189038" height="22.6345455" rx="5.67"></rect>
                <rect id="Rectangle" fill="#6C63FF" x="0.107884615" y="50.6518182" width="161.934808" height="22.6345455" rx="5.67"></rect>
            </g>
            <path d="M418.659897,477.565324 L393.45791,532.330567 C393.45791,532.330567 389.733478,542.605846 387.339201,544.508676 C384.944923,546.411505 374.356896,578.940827 374.356896,578.940827 L347.3459,621.60045 L347.3459,621.60045 L345.572361,624.5 L334.931128,621.509839 L327.5,593.112376 L327.96112,584.866782 L327.96112,583.833817 C327.96112,583.833817 344.685591,565.965343 348.392288,564.606179 C348.392288,564.606179 351.300891,564.9505 356.887539,551.105151 C362.474186,537.259802 367.528772,534.251519 367.528772,534.251519 L370.437375,524.211829 L401.758071,473.270367 C401.758071,473.270367 428.006446,434.796968 435.153808,451.868066 C442.301169,468.939164 418.659897,477.565324 418.659897,477.565324 Z" id="Path" fill="#FFD2C6"></path>
            <path d="M310.410398,863.025131 C310.324082,863.942492 310.028671,864.828342 309.546525,865.61563 C306.59496,869.885487 289.91142,957.247845 289.91142,957.247845 C291.243224,963.143464 287.499776,974.898971 285.052137,980.24076 C282.604498,985.582548 277.241289,1013.36342 277.241289,1013.36342 C277.241289,1013.36342 275.909485,1073.21289 272.418,1082.55655 C268.926515,1091.90021 273.533836,1111.94532 273.533836,1111.94532 C273.191886,1121.16392 278.771063,1130.90063 282.082575,1135.86724 C282.334538,1136.18882 282.532509,1136.5104 282.730479,1136.77838 C283.81032,1138.31482 284.530214,1139.19023 284.530214,1139.19023 C285.433609,1140.98358 286.716702,1142.56199 288.291659,1143.81739 C288.525625,1144.01391 288.777588,1144.19257 289.047548,1144.38909 C293.618617,1147.43983 298.739321,1149.58715 304.129324,1150.71348 L304.651247,1150.82068 C306.810928,1151.30304 308.250716,1151.4817 308.250716,1151.4817 L309.58252,1158.6279 L295.328622,1161.55785 L268.152629,1163.3444 C268.152629,1163.3444 236.117353,1165.75624 243.388281,1151.58889 C243.899339,1150.62155 244.338445,1149.61841 244.702087,1148.58749 L244.702087,1148.58749 C244.972047,1147.9086 245.22401,1147.19398 245.439978,1146.47936 C249.813333,1132.86584 246.861769,1116.32237 246.861769,1116.32237 L240.598692,1068.17481 C230.394197,1023.29665 248.661503,973.326806 248.661503,973.326806 C248.661503,973.326806 247.059739,969.324931 250.569222,959.17732 C254.078704,949.029709 250.569222,926.858608 250.569222,926.858608 C250.569222,926.858608 248.769487,898.273787 246.267856,884.106436 C245.313063,878.159601 244.98734,872.129955 245.295999,866.115864 C245.411038,862.58641 245.735553,859.066755 246.267856,855.575212 L307.638806,847.5 C307.638806,847.5 311.094297,857.361763 310.410398,863.025131 Z" id="Path" fill="#FFD2C6"></path>
            <path d="M311.5,1163.62932 L297.514793,1166.55841 L270.851078,1168.34444 C270.851078,1168.34444 239.419678,1170.75559 246.553546,1156.59234 C247.05497,1155.62529 247.4858,1154.62243 247.842587,1153.59181 L247.842587,1153.59181 C248.107458,1152.91311 248.354671,1152.1987 248.566568,1151.48429 C254.007096,1151.65557 259.380006,1152.75454 264.458849,1154.73487 C273.411501,1158.30694 280.156891,1149.10886 280.156891,1149.10886 L284.500781,1140.7145 L285.136472,1139.5 C286.195958,1141.03599 286.902281,1141.91115 286.902281,1141.91115 C287.942591,1143.97561 289.463697,1145.75319 291.334462,1147.09064 L290.592822,1148.66235 L286.372538,1157.59252 C286.372538,1157.59252 291.775914,1158.14619 299.174653,1159.37856 C302.141849,1160.19212 305.214269,1158.48846 306.131941,1155.52072 L306.644025,1155.62788 C308.762996,1156.11011 310.175643,1156.28872 310.175643,1156.28872 L311.5,1163.62932 Z" id="Path" fill="#000000" opacity="0.1"></path>
            <path d="M325.294533,1168.66784 C324.214571,1173.56862 294.209616,1175.08075 294.209616,1175.08075 C294.209616,1175.08075 277.506198,1173.44109 272.826361,1177.3945 C268.146524,1181.34792 254.359005,1180.40056 253.819024,1180.40056 C253.279042,1180.40056 246.025295,1180.10906 243.181394,1166.91886 C240.42749,1154.05659 246.889265,1151.81571 247.213254,1151.7064 L247.213254,1151.7064 C253.021942,1151.78699 258.769824,1152.91601 264.186662,1155.04039 C273.312344,1158.68409 280.188105,1149.31978 280.188105,1149.31978 L285.263928,1139.5 C286.34389,1141.06679 287.063865,1141.9595 287.063865,1141.9595 C288.115728,1144.07615 289.667589,1145.89722 291.581708,1147.26109 L286.523884,1158.02823 C286.523884,1158.02823 292.031692,1158.593 299.573429,1159.85008 C305.603219,1160.83388 306.917173,1155.86022 307.187164,1153.85619 C307.205051,1153.58321 307.205051,1153.30933 307.187164,1153.03635 C307.187164,1153.03635 311.885,1154.40274 317.662799,1156.04241 C323.062866,1157.60242 326.380609,1163.09107 325.294533,1168.66784 L325.294533,1168.66784 Z" id="Path" fill="#626696"></path>
            <path d="M380.391236,930.339283 C379.695648,934.547209 378.982669,945.445561 378.982669,945.445561 C381.41723,954.565669 375.17432,976.239129 375.17432,976.239129 L372.061561,988.563598 C373.452738,1004.40934 363.488428,1042.98493 363.488428,1042.98493 C363.488428,1042.98493 356.810776,1078.79632 353.332832,1094.25473 C351.257386,1102.83301 351.865039,1111.85221 355.071804,1120.06569 C355.245701,1120.48824 355.350039,1120.69952 355.350039,1120.69952 C355.350039,1120.99883 355.471767,1121.28053 355.558716,1121.56223 C355.645665,1121.84393 355.784782,1122.40734 355.9239,1122.81228 C356.721823,1124.96958 357.90028,1126.96212 359.401844,1128.69282 C359.97277,1129.38513 360.594791,1130.03256 361.262544,1130.62952 L361.366883,1130.73516 C364.631748,1133.66125 368.374049,1135.99061 372.426745,1137.61925 L372.426745,1137.61925 L374.165717,1138.32351 C375.969762,1139.01285 377.810087,1139.60062 379.678258,1140.08415 L379.678258,1140.08415 C379.884169,1140.14291 380.093174,1140.18994 380.304288,1140.225 L378.895721,1148.5 L360.532176,1143.74628 L335.925722,1135.66495 L323.752918,1128.62239 C323.752918,1128.62239 323.892036,1127.95335 324.135492,1126.66808 C324.135492,1126.66808 324.135492,1126.52723 324.135492,1126.45681 C324.23983,1125.91101 324.344168,1125.25957 324.500676,1124.5201 C326.570052,1113.78021 331.282667,1083.32116 328.917665,1060.96105 C325.978802,1033.231 337.386458,994.954716 340.168814,985.834608 C341.816572,980.623512 342.523453,975.154455 342.25558,969.689553 C337.734253,962.999127 336.69087,936.34306 336.69087,936.34306 C336.69087,936.34306 328.378583,919.124015 321.492254,900.866194 C319.220531,894.903749 317.55979,888.720798 316.536184,882.414703 C315.734291,877.967389 315.396233,873.447068 315.52758,868.928212 C315.52758,868.928212 371.383361,817.323897 377.504543,867.290818 C377.71322,869.051456 377.904506,870.600818 378.095793,872.185393 C383.451827,917.856356 381.052046,926.272208 380.391236,930.339283 Z" id="Path" fill="#FFD2C6"></path>
            <path d="M383.5,1142.86795 L381.980627,1151.5 L362.172509,1146.54117 L335.630381,1138.11115 L322.5,1130.76472 C322.5,1130.76472 322.650062,1130.06681 322.912669,1128.72609 C322.912669,1128.72609 322.912669,1128.57916 322.912669,1128.5057 C323.025215,1127.93635 323.137761,1127.25681 323.306581,1126.48543 L325.182349,1126.30177 L325.332411,1126.30177 C329.106004,1125.95921 332.909741,1126.46165 336.45572,1127.77106 C340.769988,1129.3689 346.434809,1131.18714 347.597786,1130.41577 C349.602641,1129.57451 351.778675,1129.19741 353.956642,1129.31381 L356.714022,1123.39994 L357.107934,1122.5 C357.964052,1124.75253 359.235687,1126.83182 360.859471,1128.63426 C361.513015,1129.39318 362.221377,1130.10516 362.97909,1130.76472 L362.866544,1132.85845 L362.716482,1135.81539 C365.677217,1137.67224 368.883162,1139.12434 372.245387,1140.13141 C373.119914,1140.34451 374.034452,1140.34451 374.908979,1140.13141 L374.908979,1140.13141 L376.784748,1140.86605 C378.730709,1141.58513 380.715804,1142.19827 382.730935,1142.70266 L382.730935,1142.70266 C382.983435,1142.77373 383.240313,1142.82894 383.5,1142.86795 L383.5,1142.86795 Z" id="Path" fill="#000000" opacity="0.1"></path>
            <path d="M374.195991,1162.90837 C368.807686,1161.39747 355.820959,1158.9978 353.720434,1160.86421 C351.619909,1162.73061 333.628452,1160.86421 333.628452,1160.86421 C329.782529,1160.79764 326.254001,1158.77377 324.331343,1155.53162 C320.678256,1149.86131 323.618991,1131.51721 323.618991,1131.51721 L324.952368,1131.39279 L327.180752,1131.17948 L327.326875,1131.17948 C331.001636,1130.83845 334.707752,1131.32502 338.15828,1132.60151 C342.359331,1134.13018 347.875494,1135.88993 349.007951,1135.16115 C350.957483,1134.33814 353.078564,1133.9728 355.199935,1134.09463 L358.268528,1127.5 C359.106634,1129.67799 360.344435,1131.68964 361.921616,1133.43694 C362.558009,1134.17145 363.247781,1134.86053 363.98561,1135.49888 L363.729894,1140.38708 C366.615347,1142.17548 369.736753,1143.57471 373.008737,1144.5465 C374.639116,1145.19566 376.513327,1144.62008 377.465504,1143.1778 C377.611705,1142.95212 377.722516,1142.70649 377.794282,1142.44901 L377.794282,1142.44901 C377.958671,1142.75119 379.730418,1143.33778 385.41097,1144.91978 L385.41097,1144.91978 C391.584688,1144.58205 397.539221,1147.19501 400.279037,1155.3361 C403.018853,1163.47718 379.474702,1164.40149 374.195991,1162.90837 Z" id="Path" fill="#626696"></path>
            <path d="M313.412577,865.640658 C312.264283,865.970558 311.22038,866.283095 310.24607,866.595631 C307.741898,867.361241 305.174092,867.901654 302.57338,868.210403 C286.166699,870.519701 259.077406,869.13065 250.5,868.592392 C250.61121,865.162185 250.924925,861.741502 251.439513,858.348139 L310.768021,850.5 C310.768021,850.5 314.073715,860.136543 313.412577,865.640658 Z" id="Path" fill="#000000" opacity="0.1"></path>
            <path d="M364.5,847.769211 C364.5,847.769211 342.507586,851.293333 324.625576,855.344256 C318.653195,856.688509 313.137526,858.087258 309.062255,859.467842 C306.529697,860.25154 303.938635,860.816611 301.315726,861.15724 C281.396079,864.045567 246.018507,861.375227 246.018507,861.375227 C236.304605,828.786185 257.822742,787.75015 257.822742,787.75015 C257.313333,784.480346 262.302027,774.452949 262.302027,774.452949 L262.389856,774.125968 L265.44631,762.5 L347.144964,762.5 L348.146216,767.495533 L350.218984,777.668256 L363.042036,840.648306 L364.5,847.769211 Z" id="Path" fill="#626696"></path>
            <path d="M378.5,871.52416 L378.009944,871.730202 L368.488849,875.868201 C358.180163,880.538473 327.324115,881.414149 316.542875,881.5 C315.735803,877.162886 315.395563,872.754573 315.527758,868.347688 C315.527758,868.347688 371.744223,818.022067 377.904932,866.750867 C378.114956,868.485049 378.307478,869.97885 378.5,871.52416 Z" id="Path" fill="#000000" opacity="0.1"></path>
            <path d="M378.5,866.462927 L376.491095,867.353013 L366.904739,871.661032 C356.331552,876.57431 324.277174,877.446595 314.038805,877.5 L311.342643,877.5 C306.602331,877.339784 301.862019,872.853748 301.862019,871.678834 C301.862019,871.037972 301.368603,867.887065 300.945676,865.181202 C300.593236,863.009391 300.276041,861.140209 300.276041,861.140209 C300.276041,861.140209 279.129667,851.918912 268.397883,844.459987 C260.344639,838.923649 262.371166,799.581823 263.939522,779.804099 C264.485804,772.986036 264.961597,768.5 264.961597,768.5 L347.925869,773.395476 L359.556374,774.071942 L366.217481,775.567287 L367.979679,775.941124 C367.979679,775.941124 372.737613,811.081741 375.02847,814.001225 C377.319327,816.920709 375.839081,826.782868 375.55713,832.390413 C375.546423,834.784869 375.286539,837.171552 374.781763,839.511106 C374.781763,839.511106 378.200426,849.373265 377.389815,854.891801 C377.026317,858.78507 377.403145,862.712644 378.5,866.462927 Z" id="Path" fill="#626696"></path>
            <circle id="Oval" fill="#FFD2C6" cx="291.5" cy="535.5" r="34"></circle>
            <path d="M266.688951,552.621688 C266.688951,552.621688 269.15666,585.061229 262.287588,592.50084 C255.418517,599.94045 237.5,614.002911 237.5,614.002911 L243.024723,636.037652 L274.147326,639.5 L310.5,602.05337 L302.231332,592.234505 C302.231332,592.234505 295.896317,571.513681 301.126387,561.162147 C306.356458,550.810613 266.688951,552.621688 266.688951,552.621688 Z" id="Path" fill="#FFD2C6"></path>
            <path d="M347.5,624.521997 L347.5,624.521997 L345.533959,627.5 L333.737712,624.428934 L325.5,595.263113 L326.011171,586.794416 L328.429401,583.5 C328.429401,583.5 341.365952,583.7978 340.7958,594.928088 C340.225648,604.699662 346.104111,620.799492 347.5,624.521997 Z" id="Path" fill="#000000" opacity="0.1"></path>
            <path d="M369.5,776.51076 C369.5,776.51076 361.04094,778.28453 351.355672,779.472621 C341.670404,780.660713 330.49236,781.263125 325.907407,778.753073 C318.212506,774.469252 276.521425,775.69081 264.561452,776.125886 C263.708437,776.125886 263.033134,776.125886 262.5,776.209554 L265.592177,765.5 L348.245723,765.5 L349.258678,770.101762 L360.987627,770.737641 L367.705115,772.14327 C368.824697,774.73699 369.5,776.51076 369.5,776.51076 Z" id="Path" fill="#000000" opacity="0.1"></path>
            <path d="M325.59038,585.5 C325.59038,585.5 337.38918,585.768225 336.851241,596.461455 C336.313302,607.154685 343.288581,625.608553 343.288581,625.608553 L340.598885,631.759842 C340.598885,631.759842 336.851241,646.726788 339.791976,650.481936 C342.73271,654.237083 353.473564,654.219202 347.305194,684.975649 C347.305194,684.975649 345.978277,707.971458 349.187981,715.463871 C352.397685,722.956285 352.397685,740.855822 357.221207,748.348235 C362.044729,755.840649 368.5,773.221618 368.5,773.221618 C368.5,773.221618 333.623606,780.964375 324.514501,775.61776 C315.405397,770.271145 259.352127,772.989157 259.352127,772.989157 C259.352127,772.989157 259.621097,763.619169 259.352127,762.564151 C258.856649,760.199541 259.341747,757.735617 260.696976,755.733359 C262.490106,753.194164 265.520497,748.920448 263.90668,745.183182 C262.292862,741.445916 267.941224,735.920485 264.982558,730.126829 C262.023892,724.333172 258.437631,723.170865 259.154883,720.005812 C259.872135,716.840759 258.007279,712.549161 255.873454,709.884795 C253.739628,707.220428 239.2332,678.949531 239.2332,678.949531 L236.830404,665.699224 C236.830404,665.699224 218.163913,652.055521 218.504608,645.636007 C218.845302,639.216493 225.569543,630.32931 225.569543,630.32931 L243.500851,612.751643 C243.500851,612.751643 253.416864,623.480636 263.063908,619.707607 C272.710952,615.934577 293.529201,598.052922 293.529201,598.052922 C293.529201,598.052922 300.952762,594.047431 301.490702,591.11484 C302.028641,588.182248 306.583193,590.846615 306.583193,590.846615 C306.583193,590.846615 313.289502,587.180876 314.63435,588.468355 C315.979199,589.755834 321.806874,590.846615 321.806874,590.846615 L325.59038,585.5 Z" id="Path" fill="#FFCDE5"></path>
            <path d="M222.817066,641.5 L217.221061,645.960262 C217.221061,645.960262 211.537344,656.421277 210.204127,675.157958 C208.870909,693.89464 203.187193,720.405432 203.187193,720.405432 L192.170606,740.521391 C192.170606,740.521391 174.01429,779.338206 171.663617,789.638007 C169.312944,799.937808 158.54195,817.366863 158.54195,817.366863 C158.54195,817.366863 122.071436,850.827781 147.525364,856.774797 C172.979292,862.721812 173.751155,830.138616 173.751155,830.138616 C173.751155,830.138616 179.698006,823.439267 180.662835,818.889442 C181.627663,814.339617 213.888017,756.069612 213.888017,756.069612 C213.888017,756.069612 225.185281,740.396002 222.817066,732.102423 C222.817066,732.102423 237.5,696.832322 237.5,687.98345 C237.222569,680.621768 236.437063,673.289229 235.149327,666.040395 L237.5,647.554492 L222.817066,641.5 Z" id="Path" fill="#FFD2C6"></path>
            <path d="M298.5,719.5 C298.5,719.5 274.686069,730.830939 270.072729,731.421861 C265.45939,732.012784 290.231725,729.058171 290.231725,729.058171 L298.5,719.5 Z" id="Path" fill="#000000" opacity="0.1"></path>
            <path d="M325.5,726.5 C325.5,726.5 290.091429,737.042764 274.5,735.120072 C274.572857,735.120072 313.241786,741.593136 325.5,726.5 Z" id="Path" fill="#000000" opacity="0.1"></path>
            <path d="M327.345468,731.5 C327.345468,731.5 295.361439,751.331698 276.5,748.10454 C276.5,748.10454 320.510024,756.740343 327.345468,752.161023 L307.661583,746.752378 C307.661583,746.752378 329.538659,735.358167 327.345468,731.5 Z" id="Path" fill="#000000" opacity="0.1"></path>
            <path d="M288.367364,475.298899 C279.156782,473.492356 268.906589,474.576282 261.519885,480.339156 C256.048252,484.584534 252.400496,491.178418 246.254029,494.285674 C243.007524,495.637912 239.682103,496.796177 236.295657,497.754237 C223.974722,502.737667 216.705961,515.434197 218.713476,528.46548 C219.680131,533.885111 222.215321,538.762779 223.473797,544.055952 C225.698927,553.48611 223.729139,563.349839 221.321621,572.725801 C214.609424,598.77945 204.415063,623.828721 191.008774,647.209597 C189.936944,648.647259 189.407742,650.411547 189.513194,652.195657 C189.820933,653.404126 190.450854,654.50849 191.337072,655.39324 C203.958306,669.845589 224.458691,674.777454 243.718839,675.427809 C250.813723,675.680725 258.30986,675.427809 264.474566,672.031507 C268.49353,669.737512 271.950311,666.5912 274.597087,662.818134 C281.283414,653.741973 284.6013,642.657711 283.990057,631.43847 C283.461133,622.405752 280.342302,613.210445 282.713343,604.430642 C282.957646,603.208471 283.516825,602.069626 284.336594,601.124667 C286.415815,599.029077 289.808227,599.57104 292.817625,599.318124 C300.824448,598.396786 305.986022,590.032489 306.934438,582.101762 C307.882855,574.171036 305.894828,566.204178 305.840112,558.219255 C305.772332,547.639654 309.09281,537.311178 315.324276,528.718396 C317.987137,525.105309 321.37955,521.492221 322.27325,516.939731 C323.404054,511.249119 320.084596,507.076003 317.20287,502.487382 C312.734369,495.477992 310.545716,487.294349 303.724414,481.965046 C299.203602,478.581567 293.943093,476.298099 288.367364,475.298899 Z" id="Path" fill="#985C7E"></path>
            <path d="M272.5,807.5 C272.5,807.5 279.638943,839.718134 291.5,848.5 L272.5,807.5 Z" id="Path" fill="#000000" opacity="0.1"></path>
            <g id="Group" opacity="0.1" transform="translate(188.500000, 504.500000)" fill="#000000">
                <path d="M32.2832432,28.9851064 C31.9156757,27.7191489 31.492973,26.4531915 31.0518919,25.2053191 C31.4194595,26.4712766 31.8421622,27.737234 32.2832432,28.9851064 Z" id="Path"></path>
                <path d="M132.555676,0.663829787 C132.642404,1.68457273 132.592975,2.71209608 132.408649,3.72021277 C131.48973,8.29574468 128.071351,11.8585106 125.388108,15.5117021 C119.115485,24.0770887 115.763248,34.3785402 115.812973,44.9361702 C115.812973,52.9297872 117.852973,60.9053191 116.897297,68.8446809 C115.941622,76.7840426 110.740541,85.1212766 102.672432,86.0797872 C99.6951351,86.4234043 96.2216216,85.862766 94.1448649,87.8882979 C93.3121911,88.832331 92.7423187,89.9725809 92.4908108,91.1978723 C90.1567568,99.987234 93.2627027,109.174468 93.7772973,118.235106 C94.3985183,129.464406 91.0617914,140.560528 84.3308108,149.648936 C81.6591998,153.422179 78.1769417,156.571029 74.1308108,158.87234 C67.827027,162.218085 60.3654054,162.489362 53.1978378,162.27234 C34.1210811,161.639362 13.8313514,156.846809 1.07675676,142.903191 C0.736848231,143.727917 0.628924902,144.627504 0.764324324,145.507447 C1.07441799,146.717231 1.70916042,147.822797 2.60216216,148.708511 C15.32,163.176596 35.9772973,168.11383 55.3848649,168.764894 C62.5340541,169.018085 70.0875676,168.764894 76.2994595,165.364894 C80.3455903,163.063583 83.8278484,159.914732 86.4994595,156.141489 C93.2369639,147.055446 96.5802451,135.959116 95.9643243,124.72766 C95.4313514,115.685106 92.2886486,106.479787 94.6778378,97.6904255 C94.9240106,96.466924 95.4874695,95.326839 96.3135135,94.3808511 C98.4086486,92.2829787 101.827027,92.8255319 104.859459,92.5723404 C112.927568,91.65 118.128649,83.2765957 119.084324,75.337234 C120.04,67.3978723 118.036757,59.4223404 117.981622,51.4287234 C117.936634,40.874623 121.281405,30.5763476 127.538378,22.0042553 C130.221622,18.387234 133.64,14.7702128 134.540541,10.212766 C135.120331,6.89745812 134.411806,3.48883186 132.555676,0.663829787 L132.555676,0.663829787 Z" id="Path"></path>
            </g>
            <ellipse id="Oval" fill="#6C63FF" opacity="0.1" cx="1520.5" cy="788.5" rx="137" ry="23"></ellipse>
            <path d="M1361.5,123.299629 L1353.32104,139.5 C1350.72312,139.282656 1348.16148,138.739117 1345.69425,137.881722 C1337.78021,135.4542 1331.26204,129.692954 1327.78336,122.050741 C1320.46716,105.55134 1332.5803,94.8918128 1338.22275,91.7607965 C1343.8652,88.6297802 1349.09352,85.0238345 1353.32104,95.2787923 C1355.98345,102.293497 1358.20805,109.472807 1359.98154,116.773747 C1360.91332,120.678722 1361.5,123.299629 1361.5,123.299629 Z" id="Path" fill="#CC818C"></path>
            <path d="M1631.5,214.218401 L1618.14216,234.397278 C1618.14216,234.397278 1554.94796,264.906456 1567.03698,229.044791 C1572.32373,213.254954 1572.97576,201.693581 1572.02414,193.700533 C1572.02414,193.700533 1572.02414,193.5578 1572.02414,193.486434 C1570.79057,183.495124 1567.07223,179.213135 1567.07223,179.213135 C1567.07223,179.213135 1628.66278,147.312311 1619.49909,169.132617 C1617.63193,173.670117 1616.88201,178.59908 1617.31391,183.495124 C1618.07506,190.54727 1620.34201,197.347451 1623.95758,203.424219 C1626.10858,207.268769 1628.63539,210.884964 1631.5,214.218401 L1631.5,214.218401 Z" id="Path" fill="#CC818C"></path>
            <path d="M1612.09174,616.406103 C1612.09174,616.406103 1621.16785,654.829729 1617.36855,661.174426 C1613.56925,667.519123 1613.85068,681.612525 1613.85068,681.612525 C1613.85068,681.612525 1606.51592,736.617669 1603.71921,738.732568 C1601.42844,740.814767 1599.43367,743.207064 1597.7916,745.841472 C1597.7916,745.841472 1602.76938,758.282054 1599.77919,763.436009 C1599.32803,764.233073 1598.62947,764.857695 1597.7916,765.213235 C1593.11283,767.203728 1575.84008,758.370915 1566.00762,752.950376 C1564.76928,752.282214 1563.83599,751.154439 1563.4044,749.804686 C1562.65467,747.638667 1563.28905,745.229688 1565.00503,743.726573 C1563.81122,741.272221 1564.47849,738.308641 1566.60566,736.617669 L1569.1913,734.591631 L1568.59326,733.880741 C1566.99211,731.981065 1566.77929,729.257285 1568.06558,727.127282 C1569.1913,725.207878 1570.28184,721.795604 1570.58086,715.912986 C1571.28443,702.157257 1574.76713,696.878896 1574.76713,696.878896 L1572.67399,634.125046 C1572.86536,630.72144 1572.86536,627.309603 1572.67399,623.905997 C1572.3222,620.031644 1565.86691,622.59085 1564.82914,621.524514 C1563.79137,620.458179 1563.59788,615.446401 1560.81876,614.024621 C1559.52844,612.897412 1558.63884,611.37436 1558.2859,609.688189 C1557.05387,605.728276 1556.80619,601.522699 1557.56473,597.443102 C1557.92745,595.472146 1557.46227,593.437565 1556.28071,591.827068 C1553.13221,587.59727 1554.18758,573.148423 1554.18758,573.148423 L1549.36809,542.935581 C1541.69913,568.580952 1531.93704,599.46914 1528.71818,601.708444 C1525.54427,603.625146 1523.66666,607.146459 1523.82834,610.878931 C1528.3664,616.512737 1526.62505,640.842961 1526.62505,640.842961 C1526.62505,640.842961 1526.62505,708.164281 1523.35343,712.749524 C1520.08181,717.334767 1513.71446,731.428169 1513.71446,731.428169 C1513.71446,731.428169 1532.41195,748.240727 1517.70725,756.718095 L1517.54894,756.806956 C1502.54522,765.266552 1471.5,741.664991 1471.5,741.664991 L1474.73644,738.394895 L1475.68627,737.435193 L1472.1684,731.783614 C1468.56258,725.438917 1482.72201,713.460414 1482.72201,713.460414 C1482.72201,713.460414 1478.95789,698.656122 1480.34745,697.945231 C1481.73701,697.234341 1482.72201,683.834057 1482.72201,683.834057 C1482.72201,683.834057 1479.29209,635.191382 1480.68165,630.623911 C1481.09824,628.448233 1480.48685,626.200711 1479.02825,624.545798 C1477.12709,621.786176 1476.18669,618.466804 1476.35466,615.108728 C1476.6623,612.209872 1475.84233,609.303732 1474.06805,607.004578 C1469.88178,602.419335 1474.06805,582.674354 1474.06805,582.674354 L1477.58592,556.584677 L1477.58592,515.033133 C1477.58353,507.066526 1479.01391,499.165783 1481.80736,491.715928 C1483.91444,485.664291 1485.19271,479.349979 1485.60667,472.948422 C1486.74997,459.583682 1493.85608,446.592161 1498.64038,439.181128 C1501.17325,435.271231 1503.05531,432.925293 1503.05531,432.925293 L1614.69497,428.5 C1614.69497,428.5 1616.45391,433.52955 1618.21284,440.514048 C1618.59981,442.042462 1618.98677,443.641965 1619.33856,445.33033 C1621.67795,456.171409 1623.08509,469.589465 1618.35356,477.160447 C1617.69156,478.176291 1617.10369,479.239517 1616.59462,480.341682 C1610.20968,494.079639 1614.57184,511.336503 1614.57184,511.336503 C1614.57184,511.336503 1608.99602,550.435475 1606.5511,556.815716 C1604.79216,561.312098 1606.41038,567.585706 1607.50092,570.855801 C1608.01844,572.426377 1608.28561,574.070081 1608.29244,575.725401 L1608.29244,589.605535 C1608.29244,589.605535 1611.08915,601.228593 1609.69959,604.409828 C1608.31003,607.591062 1612.09174,616.406103 1612.09174,616.406103 Z" id="Path" fill="#444053"></path>
            <path d="M1613.33238,473.592386 C1612.67454,474.526827 1612.08117,475.497922 1611.55575,476.5 L1605.21316,476.175127 C1605.81722,473.186294 1601.5,445.16599 1601.5,445.16599 L1614.29176,444.5 C1616.67245,454.473604 1618.11153,466.753807 1613.33238,473.592386 Z" id="Path" fill="#000000" opacity="0.1"></path>
            <path d="M1613.32889,471.592386 C1612.66043,472.520856 1612.06682,473.492633 1611.55278,474.5 L1605.19431,474.175127 C1605.81595,471.186294 1601.5,443.149746 1601.5,443.149746 L1614.27023,442.5 C1616.68574,452.408629 1618.10663,464.672589 1613.32889,471.592386 Z" id="Path" fill="#444053"></path>
            <path d="M1613.32889,471.592386 C1612.66043,472.520856 1612.06682,473.492633 1611.55278,474.5 L1605.19431,474.175127 C1605.81595,471.186294 1601.5,443.149746 1601.5,443.149746 L1614.27023,442.5 C1616.68574,452.408629 1618.10663,464.672589 1613.32889,471.592386 Z" id="Path" fill="#000000" opacity="0.05"></path>
            <path d="M1596.5,763.541542 C1596.05348,764.297851 1595.36212,764.890536 1594.53288,765.227897 C1589.90232,767.116616 1572.80754,758.735428 1563.0764,753.592043 C1561.85082,752.958045 1560.92714,751.887934 1560.5,750.607194 C1566.03578,749.629108 1569.67408,755.666261 1569.67408,755.666261 C1571.54225,754.527189 1573.80694,754.169459 1575.95187,754.674622 C1578.09681,755.179784 1579.93918,756.504784 1581.05899,758.347566 C1585.81141,765.092989 1595.99516,762.259911 1595.99516,762.259911 C1595.99516,762.259911 1596.20406,762.715227 1596.5,763.541542 Z" id="Path" fill="#000000" opacity="0.1"></path>
            <path d="M1599.01623,784.917818 C1597.94727,787.997899 1590.00135,787.997899 1590.00135,787.997899 C1590.00135,787.997899 1575.74859,791.960475 1569.40611,795.040555 C1563.06363,798.120636 1558.71654,796.494077 1558.71654,796.494077 C1544.12528,799.764499 1525.40071,794.106149 1519.75305,793.033312 C1514.1054,791.960475 1511.8784,784.796691 1518.86226,783.429689 C1519.7594,783.25409 1520.63659,782.993279 1521.4812,782.651017 C1524.96586,781.142787 1527.96879,778.752128 1530.17539,775.729487 C1534.89733,771.31705 1539.86348,767.157959 1545.05171,763.270734 C1548.63323,760.701117 1551.78254,757.607305 1554.38727,754.099707 C1562.6895,746.970531 1568.64003,756.764496 1568.64003,756.764496 C1570.55196,755.595686 1572.86971,755.228616 1575.06489,755.746967 C1577.26008,756.265318 1579.14561,757.624911 1580.29166,759.515804 C1585.15541,766.437334 1595.57775,763.530291 1595.57775,763.530291 C1595.57775,763.530291 1597.35934,768.167716 1598.3214,771.507354 C1598.53519,772.355242 1598.7668,773.428079 1598.96278,774.604739 C1599.66062,778.007367 1599.67877,781.508539 1599.01623,784.917818 L1599.01623,784.917818 Z" id="Path" fill="#FF748F"></path>
            <circle id="Oval" fill="#575988" cx="1576.5" cy="759.5" r="1"></circle>
            <circle id="Oval" fill="#575988" cx="1566.5" cy="769.5" r="1"></circle>
            <circle id="Oval" fill="#575988" cx="1559.5" cy="771.5" r="1"></circle>
            <circle id="Oval" fill="#575988" cx="1564.5" cy="769.5" r="1"></circle>
            <circle id="Oval" fill="#575988" cx="1573.5" cy="764.5" r="1"></circle>
            <path d="M1599.05008,784.310704 C1597.98069,787.539405 1590.0316,787.539405 1590.0316,787.539405 C1590.0316,787.539405 1575.77312,791.693182 1569.42811,794.921883 C1563.08309,798.150583 1558.73425,796.445539 1558.73425,796.445539 C1544.13714,799.873766 1525.40508,793.942389 1519.75516,792.817786 C1514.10524,791.693182 1511.87735,784.183733 1518.864,782.750771 C1519.7615,782.566698 1520.63905,782.293303 1521.484,781.934526 C1527.65397,784.074058 1534.09513,785.29591 1540.60817,785.562279 C1555.00923,786.178997 1566.416,785.562279 1566.416,785.562279 L1580.99529,780.791784 C1583.75473,779.082691 1586.82017,777.948243 1590.01377,777.454251 C1593.22563,776.792361 1596.26299,775.444615 1598.92532,773.5 C1599.64703,777.062159 1599.68938,780.732277 1599.05008,784.310704 Z" id="Path" fill="#DCE6F2"></path>
            <path d="M1561.02308,789.5 C1560.17543,789.499165 1559.33007,789.423508 1558.5,789.274194 L1558.72262,788.33871 C1561.81094,788.756014 1564.97222,788.374604 1567.81312,787.241935 C1569.16742,786.774194 1570.52172,786.225806 1571.83891,785.629032 C1573.15611,785.032258 1574.99276,784.33871 1576.62534,783.806452 L1578.12805,783.354839 C1578.9629,783.112903 1579.79774,782.870968 1580.59548,782.564516 C1581.05928,782.403226 1581.50452,782.209677 1581.94977,782.032258 C1583.0309,781.537235 1584.17714,781.158119 1585.36335,780.903226 C1585.97647,780.801661 1586.59594,780.731647 1587.21855,780.693548 C1587.77834,780.660246 1588.3357,780.601022 1588.88824,780.516129 C1589.9948,780.282121 1591.06582,779.935649 1592.07919,779.483871 C1593.16941,779.00176 1594.32148,778.633604 1595.51131,778.387097 L1596.3276,778.258065 C1597.19384,778.24083 1598.02903,777.974214 1598.70226,777.5 L1599.5,778.16129 C1598.66159,778.793625 1597.60319,779.162827 1596.49457,779.209677 L1595.73394,779.322581 C1594.62737,779.556589 1593.55635,779.90306 1592.54299,780.354839 C1591.45276,780.83695 1590.30069,781.205106 1589.11086,781.451613 C1588.49904,781.557179 1587.87883,781.621884 1587.25566,781.645161 C1586.67697,781.682758 1586.10103,781.747368 1585.53032,781.83871 C1584.43348,782.08161 1583.37449,782.439048 1582.37647,782.903226 L1580.98507,783.451613 C1580.13167,783.758065 1579.27828,784.016129 1578.42489,784.258065 L1576.95928,784.709677 C1575.3638,785.225806 1573.78688,785.870968 1572.24706,786.483871 C1570.70724,787.096774 1569.55701,787.596774 1568.16561,788.096774 C1565.90709,788.9499 1563.48409,789.425924 1561.02308,789.5 L1561.02308,789.5 Z" id="Path" fill="#575988" opacity="0.5"></path>
            <path d="M1565.5,615.5 C1565.5,615.5 1572.48963,606.53139 1584.43308,606.680867 C1596.37653,606.830344 1601.5,605.5 1601.5,605.5 C1601.5,605.5 1593.84873,609.491031 1588.55561,609.984305 C1583.26249,610.477578 1565.5,615.5 1565.5,615.5 Z" id="Path" fill="#000000" opacity="0.1"></path>
            <path d="M1570.5,615.5 C1570.5,615.5 1577.67563,611.171141 1581.78426,611.003356 C1585.89289,610.83557 1589.5,610.5 1589.5,610.5 C1587.57681,611.679602 1585.4467,612.580524 1583.19239,613.167785 C1579.68173,614.006711 1570.5,615.5 1570.5,615.5 Z" id="Path" fill="#000000" opacity="0.1"></path>
            <path d="M1577.5,622.5 C1577.5,622.5 1587.41166,622.963918 1587.5,624.5" id="Path" fill="#000000" opacity="0.1"></path>
            <path d="M1480.5,474.499359 C1480.96449,474.589918 1488.97289,465.063071 1489.53348,461.295801 C1489.97835,458.919944 1491.23275,456.837778 1493.02514,455.5 C1493.02514,455.5 1498.19857,457.836432 1493.58573,464.990623 C1488.97289,472.144815 1480.5,474.499359 1480.5,474.499359 Z" id="Path" fill="#000000" opacity="0.1"></path>
            <path d="M1617.58261,170.476914 C1615.58684,174.886973 1613.81866,175.213644 1614.20381,179.493034 C1611.87281,181.787332 1609.1952,183.75175 1606.25574,185.324112 C1600.04084,188.770491 1593.28323,195.5 1585.54524,195.5 C1580.36847,195.51016 1575.23633,194.606829 1570.4194,192.837545 C1569.19393,183.690757 1565.5,179.770705 1565.5,179.770705 C1565.5,179.770705 1626.65111,150.500982 1617.58261,170.476914 Z" id="Path" fill="#000000" opacity="0.1"></path>
            <path d="M1628.5,150 C1628.5,173.472103 1609.4721,192.5 1586,192.5 C1562.5279,192.5 1543.5,173.472103 1543.5,150 C1543.5,126.527901 1562.5279,107.5 1586,107.5 C1597.27316,107.495234 1608.08597,111.971368 1616.0573,119.942698 C1624.02863,127.914028 1628.50477,138.72684 1628.5,150 L1628.5,150 Z" id="Path" fill="#CC818C"></path>
            <path d="M1631.5,213.095795 L1618.14216,233.351312 C1618.14216,233.351312 1554.94796,263.976364 1567.03698,227.978496 C1572.32373,212.128688 1572.97576,200.523405 1572.02414,192.5 L1572.12988,192.5 C1572.87608,195.159519 1573.29632,197.902496 1573.38107,200.66668 C1573.57492,206.182772 1573.7159,213.203251 1587.21472,215.495653 C1609.71862,219.346171 1621.80764,205.036571 1623.92234,202.224797 C1626.08247,206.097963 1628.62119,209.74003 1631.5,213.095795 L1631.5,213.095795 Z" id="Path" fill="#000000" opacity="0.1"></path>
            <path d="M1356.5,124.523041 L1349.07053,141.5 C1346.71068,141.272237 1344.38377,140.702643 1342.14263,139.804147 L1341.5,138.900922 C1344.54075,140.264977 1354.79154,117.5 1354.79154,117.5 L1355.12069,117.813364 C1355.96708,121.776498 1356.5,124.523041 1356.5,124.523041 Z" id="Path" fill="#000000" opacity="0.1"></path>
            <path d="M1616.5,436.332801 C1589.3729,448.994244 1495.5,438.236778 1495.5,438.236778 C1495.79327,437.166129 1495.95412,436.058658 1495.9784,434.942898 C1498.52987,430.75415 1500.42576,428.240901 1500.42576,428.240901 L1612.88542,423.5 C1612.88542,423.5 1614.71043,428.850174 1616.5,436.332801 Z" id="Path" fill="#000000" opacity="0.1"></path>
            <path d="M1569.68663,190.936232 L1557.08503,196.259349 C1553.19634,196.216399 1549.68033,193.950725 1548.05329,190.439408 C1545.14385,184.371054 1534.79127,190.439408 1534.79127,190.439408 C1534.79127,190.439408 1503.18018,188.061749 1491.50674,193.88169 C1491.50674,193.88169 1472.65789,185.950246 1470.0876,185.435678 C1467.5173,184.92111 1463.44766,182.791863 1461.59133,183.324175 C1459.73501,183.856486 1457.3432,179.881892 1456.02236,180.148048 C1454.70151,180.414204 1454.14818,177.504233 1449.90005,176.457353 C1445.65192,175.410474 1444.06333,176.723509 1439.27972,171.968191 C1434.49611,167.212873 1395.74531,148.475501 1395.74531,148.475501 L1378.21731,134.280522 L1359.6362,119.5 C1359.6362,119.5 1347.94491,141.395755 1344.5,140.08272 L1379.80589,182.312782 C1379.80589,182.312782 1405.29468,204.492437 1422.82268,211.60767 C1440.35068,218.722904 1439.01198,220.85215 1439.01198,220.85215 C1439.01198,220.85215 1492.13147,247.76938 1500.35999,247.254812 C1508.58851,246.740244 1506.99992,302.420049 1503.53716,311.398373 C1500.0744,320.376697 1494.52327,385.300983 1494.52327,385.300983 C1494.52327,385.300983 1489.16848,399.016881 1494.77316,408.527517 C1494.77316,408.527517 1496.11186,428.045614 1494.77316,431.487896 C1494.77316,431.487896 1589.92772,441.601819 1616.91584,429.713524 C1616.91584,429.713524 1620.89624,385.90427 1616.91584,380.350484 C1612.93545,374.796698 1620.64635,362.411579 1620.64635,362.411579 L1637.51392,324.58196 L1678.88857,283.114877 C1678.88857,283.114877 1685.26077,248.53236 1656.86255,226.334961 L1637.99585,209.709092 C1637.99585,209.709092 1627.44692,200.642049 1624.37685,200.07425 C1621.30677,199.506451 1622.43127,200.07425 1622.43127,200.07425 C1622.43127,200.07425 1610.11526,217.817974 1584.94777,213.665942 C1571.27521,211.377002 1571.13242,204.45695 1570.93608,198.974139 C1570.85167,196.254139 1570.43206,193.554691 1569.68663,190.936232 Z" id="Path" fill="#67647E"></path>
            <path d="M1623.5,333.5 C1623.5,333.5 1566.82468,336.03919 1555.5,355.5 C1555.5,355.5 1570.18398,347.920327 1583.30952,350.137382 C1596.43506,352.354436 1623.5,333.5 1623.5,333.5 Z" id="Path" fill="#000000" opacity="0.1"></path>
            <path d="M1553.5,401.268376 C1553.5,401.268376 1582.29119,402.852275 1588.3956,397.736279 C1594.5,392.620283 1594.5,389.5 1594.5,389.5 L1553.5,401.268376 Z" id="Path" fill="#000000" opacity="0.1"></path>
            <path d="M1631.19686,280.5 C1631.19686,280.5 1611.29294,309.122292 1635.5,321.5 L1631.19686,280.5 Z" id="Path" fill="#000000" opacity="0.1"></path>
            <path d="M1490.5,226.5 C1490.5,226.5 1498.5,244.307915 1502.5,245.5 L1490.5,226.5 Z" id="Path" fill="#000000" opacity="0.1"></path>
            <path d="M1458.5,216.5 C1458.5,216.5 1478.71231,236.552766 1482.5,238.5 C1482.5,238.5 1461.52335,216.5 1458.5,216.5 Z" id="Path" fill="#000000" opacity="0.1"></path>
            <path d="M1543.5,200.5 C1543.5,200.5 1525.93103,229.082849 1537.36772,246.5 C1537.27574,246.5 1530.9595,225.856831 1543.5,200.5 Z" id="Path" fill="#000000" opacity="0.1"></path>
            <path d="M1597.5,431.427857 L1591.27245,437.623513 L1590.40059,438.489775 L1583.19443,445.702348 C1582.66064,446.116647 1582.16243,446.530946 1581.64644,446.907582 C1552.28799,469.18558 1546.39851,435.344867 1546.39851,435.344867 C1546.39851,435.344867 1533.42741,444.308796 1531.57694,437.020896 C1529.72647,429.732996 1561.82504,419.375516 1566.5046,419.94047 C1566.93048,419.98735 1567.35981,419.98735 1567.78569,419.94047 C1570.09924,419.530533 1572.32725,418.695642 1574.3691,417.473506 C1574.84951,417.209861 1575.32992,416.946216 1575.79254,416.663739 C1577.42807,415.699191 1579.0139,414.643114 1580.54327,413.5 L1597.5,431.427857 Z" id="Path" fill="#CC818C"></path>
            <path d="M1628.44605,150.521976 C1628.44846,165.693416 1620.54857,179.744283 1607.6557,187.5 C1607.06884,186.494812 1606.55202,185.449445 1606.10902,184.37151 C1604.58032,180.733731 1603.64511,176.932252 1602.11641,173.330851 C1600.39001,169.396712 1597.94994,165.824606 1594.92252,162.79948 C1594.44101,162.213074 1593.82302,161.756816 1593.12405,161.471691 C1591.73048,161.282698 1590.32098,161.676844 1589.22136,162.563025 C1587.42089,163.804971 1585.40868,164.699161 1583.2864,165.200415 C1581.12395,165.693217 1578.86438,165.002816 1577.33346,163.381525 C1575.67886,161.380747 1575.91266,158.434146 1576.39825,155.869511 C1577.42338,150.267332 1579.1679,144.774285 1579.1679,139.081161 C1579.1679,133.388037 1577.0457,127.240191 1572.15386,124.420912 C1567.83752,121.947222 1562.47807,122.602022 1557.67615,121.237855 C1556.93312,121.037886 1556.20574,120.782543 1555.5,120.473922 C1567.58586,107.95347 1585.96418,104.080197 1601.98895,110.676268 C1618.01372,117.272339 1628.49424,133.024408 1628.5,150.521976 L1628.44605,150.521976 Z" id="Path" fill="#000000" opacity="0.1"></path>
            <path d="M1551.93508,115.748681 C1551.15595,116.155392 1550.30435,116.880399 1550.5399,117.729187 C1550.6845,118.127342 1550.95799,118.468733 1551.31902,118.701757 C1553.31297,120.278694 1555.62045,121.434773 1558.09561,122.096911 C1562.93343,123.370094 1568.35108,122.768869 1572.69969,125.191453 C1577.60999,127.932332 1579.7843,133.891535 1579.76618,139.426343 C1579.74806,144.961151 1577.95426,150.319128 1576.9577,155.747838 C1576.4866,158.258837 1576.23293,161.052766 1577.91802,163.068639 C1579.46425,164.638693 1581.73713,165.308835 1583.91548,164.836948 C1586.04697,164.355716 1588.06832,163.492283 1589.8767,162.290582 C1590.98257,161.42528 1592.40428,161.041642 1593.80856,161.229597 C1594.5462,161.493616 1595.20584,161.930891 1595.7292,162.50278 C1598.78645,165.444666 1601.24561,168.924627 1602.97688,172.758974 C1604.53513,176.295592 1605.47733,179.973676 1606.99935,183.492611 C1608.35244,187.110094 1610.90283,190.184007 1614.24703,192.228059 C1617.71807,194.272529 1622.15834,193.817523 1625.11855,191.114024 C1627.61901,188.426194 1627.54653,184.359083 1628.7424,180.91088 C1630.88046,174.951677 1636.8598,171.202861 1640.59236,166.057081 C1644.79601,160.27471 1646.02812,152.971592 1647.09715,145.969087 C1647.5948,143.759013 1647.63178,141.473817 1647.20587,139.249512 C1646.71144,137.779035 1646.07438,136.35795 1645.30335,135.005569 C1641.13593,126.588417 1641.22653,115.996244 1634.57678,109.258986 C1629.57588,104.219304 1622.00205,102.680875 1614.86308,101.832087 C1607.72412,100.983298 1600.24088,100.452805 1594.11659,96.7924049 C1592.40051,95.525294 1590.50947,94.5013302 1588.49964,93.7509129 C1586.40048,93.038226 1584.07882,93.8851043 1582.97328,95.7667855 C1582.84667,96.3059856 1582.59223,96.8086832 1582.23039,97.2344823 C1581.58872,97.5960672 1580.81013,97.6419208 1580.12856,97.3582639 L1570.6341,94.8649478 L1571.72125,99.5332844 C1568.27126,99.6670548 1564.83299,99.0635444 1561.64697,97.7649751 C1561.46578,100.399756 1564.50981,102.115016 1565.452,104.572966 C1566.15172,106.874761 1565.44891,109.364559 1563.64008,110.991929 C1560.12496,114.334033 1555.81259,113.679759 1551.93508,115.748681 Z" id="Path" fill="#585268"></path>
            <path d="M1514.5,748.816728 L1514.1352,753.413677 L1513.97885,753.510252 C1499.16088,762.704152 1468.5,737.053944 1468.5,737.053944 L1471.69637,733.5 C1472.74982,734.805183 1473.25502,736.546493 1473.0861,738.290099 L1479.35725,738.676397 L1486.84441,747.677148 C1486.84441,747.677148 1507.11707,750.284661 1512.6065,748.816728 L1514.5,748.816728 Z" id="Path" fill="#000000" opacity="0.1"></path>
            <path d="M1509.58612,771.776213 C1499.69186,774.024563 1465.01735,773.860049 1465.01735,773.860049 L1445.65668,777.022362 C1445.65668,777.022362 1412.33707,780.294351 1408.62895,769.710656 C1404.92082,759.126962 1411.53483,759.748457 1411.53483,759.748457 L1411.78441,759.748457 L1425.65422,758.596863 C1425.65422,758.596863 1443.24997,751.614184 1449.70352,746.806737 C1454.79949,742.744312 1459.61272,738.322172 1464.10815,733.572549 C1464.10815,733.572549 1469.90209,732.420956 1469.79513,739.293959 L1476.23086,739.659545 L1483.91451,748.159403 C1483.91451,748.159403 1504.71921,750.645383 1510.35271,749.256159 L1512.29591,749.256159 L1511.40453,759.766736 L1511.65411,760.095763 C1512.88421,761.722617 1518.42857,769.747215 1509.58612,771.776213 Z" id="Path" fill="#FF748F"></path>
            <circle id="Oval" fill="#575988" cx="1476.5" cy="744.5" r="1"></circle>
            <circle id="Oval" fill="#575988" cx="1450.5" cy="757.5" r="1"></circle>
            <circle id="Oval" fill="#575988" cx="1438.5" cy="764.5" r="1"></circle>
            <circle id="Oval" fill="#575988" cx="1457.5" cy="757.5" r="1"></circle>
            <circle id="Oval" fill="#575988" cx="1445.5" cy="759.5" r="1"></circle>
            <circle id="Oval" fill="#575988" cx="1462.5" cy="754.5" r="1"></circle>
            <circle id="Oval" fill="#575988" cx="1472.5" cy="747.5" r="1"></circle>
            <path d="M1509.58612,773.376031 C1499.69186,775.781575 1465.01735,775.60556 1465.01735,775.60556 L1445.65668,778.988968 C1445.65668,778.988968 1412.33707,782.48972 1408.62895,771.166059 C1404.92082,759.842398 1411.53483,760.507345 1411.53483,760.507345 L1411.78441,760.507345 C1413.90589,763.519165 1418.16666,766.961245 1426.54559,767.117703 L1450.50576,768.193353 L1475.33948,766.237626 C1475.33948,766.237626 1498.51524,765.455335 1502.38381,764.594815 C1505.56786,763.650551 1508.66994,762.400579 1511.65411,760.859376 C1512.88421,762.619531 1518.42857,771.205173 1509.58612,773.376031 Z" id="Path" fill="#DCE6F2"></path>
            <path d="M1450.52305,775.499817 C1449.16655,775.506573 1447.81474,775.326568 1446.5,774.964112 L1446.86573,773.892703 C1450.22481,774.687831 1453.71707,774.516843 1456.99649,773.396681 C1458.20341,773.059385 1459.39203,772.682408 1460.65381,772.28559 C1466.32308,770.190742 1472.34325,769.452944 1478.30035,770.122931 L1479.08667,770.122931 C1489.98885,770.752439 1500.92164,770.220805 1511.72821,768.535659 C1514.29422,768.351901 1516.74021,767.288953 1518.71368,765.5 L1519.5,766.333318 C1517.36315,768.30079 1514.70598,769.481785 1511.91107,769.706272 C1501.01265,771.393649 1489.98866,771.925249 1478.99524,771.293545 L1478.2272,771.293545 C1474.62351,771.008953 1471.0025,771.121964 1467.41984,771.63084 C1465.2255,772.078904 1463.05774,772.668564 1460.92811,773.396681 C1459.72119,773.793499 1458.51428,774.190317 1457.27079,774.527612 C1455.06795,775.157062 1452.80095,775.483689 1450.52305,775.499817 L1450.52305,775.499817 Z" id="Path" fill="#575988" opacity="0.5"></path>
            <path d="M1597.5,431.336066 L1591.18852,437.5 L1575.5,416.647541 C1577.15757,415.687931 1578.76477,414.637262 1580.31475,413.5 L1597.5,431.336066 Z" id="Path" fill="#000000" opacity="0.1"></path>
            <path d="M1669.65595,267.5 L1681.99126,284.665889 L1681.99126,302.697285 C1681.99126,302.697285 1687.63593,321.75647 1681.99126,340.797624 L1682.62245,357.422571 C1682.62245,357.422571 1676.63514,372.713195 1678.78119,376.463725 C1678.78119,376.463725 1677.69915,387.733347 1663.21778,395.52291 C1648.73641,403.312473 1632.36146,421.668434 1632.36146,421.668434 C1632.36146,421.668434 1626.19381,433.478999 1609.56638,430.792321 L1593.73246,437.5 L1575.5,414.167374 L1600.17063,400.752015 C1600.17063,400.752015 1608.75485,389.211922 1613.85849,389.752864 L1634.77803,365.392448 C1634.77803,365.392448 1635.31905,357.620916 1640.67518,357.620916 C1640.67518,357.620916 1630.75643,349.578914 1634.23701,344.7465 C1637.71759,339.914086 1634.77803,318.456725 1634.77803,318.456725 L1669.65595,267.5 Z" id="Path" fill="#67647E"></path>
            <path d="M1643.5,348.157775 C1643.5,348.157775 1669.05835,347.579179 1672.21633,355.579767 C1675.37431,363.580356 1651.28859,343.70857 1643.5,348.157775 Z" id="Path" fill="#000000" opacity="0.1"></path>
            <path d="M1589.49864,433.436701 C1589.50786,433.887825 1589.47013,434.338726 1589.38597,434.783248 C1588.68859,439.045217 1584.82851,442.269365 1580.14716,442.5 L1579.62138,442.5 C1574.17668,442.5 1569.76289,438.442223 1569.76289,433.436701 C1569.76955,432.432085 1569.95346,431.435117 1570.30745,430.484655 C1565.65049,427.031969 1565.40637,420.851662 1565.51904,417.761509 C1567.96067,417.385713 1570.31204,416.620353 1572.46693,415.5 C1573.68442,418.712201 1575.31729,421.77829 1577.33045,424.632353 C1578.0796,424.459741 1578.84906,424.372767 1579.62138,424.373402 C1582.23926,424.368817 1584.75163,425.321674 1586.60452,427.021869 C1588.45741,428.722065 1589.49865,431.02997 1589.49864,433.436701 L1589.49864,433.436701 Z" id="Path" fill="#000000" opacity="0.1"></path>
            <path d="M1575.91223,416.5 C1575.91223,416.5 1570.60056,417.884547 1570.60056,419.006205 C1570.60056,420.127864 1569.40845,430.310418 1575.23318,434.481584 C1581.0579,438.652751 1580.48448,428.662982 1580.48448,428.662982 C1580.48448,428.662982 1575.45953,419.707242 1575.91223,416.5 Z" id="Path" fill="#575988"></path>
            <circle id="Oval" fill="#E4AAB4" cx="1580" cy="436" r="9.5"></circle>
            <circle id="Oval" fill="#DCE6F2" cx="1585" cy="436" r="7.5"></circle>
            <path d="M1548.64253,442.5 C1548.64253,442.5 1567.83341,459.846406 1592.5,448.859095 L1592.5,457.250089 C1592.5,457.250089 1576.05561,469.554373 1561.14856,462.104073 C1546.24151,454.653773 1548.64253,442.5 1548.64253,442.5 Z" id="Path" fill="#000000" opacity="0.1"></path>
            <path d="M1548.64253,437.5 C1548.64253,437.5 1567.88523,454.891023 1592.5,443.818864 L1592.5,452.231442 C1592.5,452.231442 1576.05561,464.567374 1561.14856,457.09791 C1546.24151,449.628447 1548.64253,437.5 1548.64253,437.5 Z" id="Path" fill="#000000" opacity="0.1"></path>
            <path d="M1548.64253,437.5 C1548.64253,437.5 1567.88523,454.891023 1592.5,443.818864 L1592.5,452.231442 C1592.5,452.231442 1576.05561,464.567374 1561.14856,457.09791 C1546.24151,449.628447 1548.64253,437.5 1548.64253,437.5 Z" id="Path" fill="#444053"></path>
            <path d="M1548.63565,437.5 C1548.63565,437.5 1567.82954,454.864699 1592.5,443.865801 L1592.5,452.265644 C1592.5,452.265644 1576.0012,464.526402 1561.14364,457.124746 C1546.28609,449.72309 1548.63565,437.5 1548.63565,437.5 Z" id="Path" fill="#000000" opacity="0.05"></path>
            <path d="M1482.5,733.5 C1482.5,733.5 1506.61462,739.004032 1510.14754,740.193548 C1513.68046,741.383065 1509.17518,743.5 1509.17518,743.5 C1509.17518,743.5 1487.08632,738.600806 1482.5,733.5 Z" id="Path" fill="#000000" opacity="0.1"></path>
            <path d="M1480.5,721.5 C1480.93137,721.5 1498.67157,717.075597 1502.5,709.5" id="Path" fill="#000000" opacity="0.1"></path>
            <path d="M1509.5,617.511069 C1509.5,617.511069 1516.20907,627.786886 1520.53642,627.49385 C1524.86377,627.200813 1513.44158,617.120354 1509.5,617.511069 Z" id="Path" fill="#000000" opacity="0.1"></path>
            <path d="M1509.5,636.5 C1509.5,636.5 1513.53846,643.227376 1519.5,641.075339" id="Path" fill="#000000" opacity="0.1"></path>
            <path d="M1529.5,488.575059 L1547.88632,539.5 C1547.88632,539.5 1550.48306,506.733773 1544.99331,496.92221 C1541.81424,491.211419 1535.77058,487.955343 1529.5,488.575059 Z" id="Path" fill="#000000" opacity="0.05"></path>
            <g id="Group" opacity="0.1" transform="translate(1549.500000, 94.500000)" fill="#000000">
                <path d="M23.6634615,1.87719298 L23.4990385,1.1754386 L20.3932692,0.385964912 L20.7403846,1.84210526 C21.7128894,1.91531609 22.689355,1.92703728 23.6634615,1.87719298 L23.6634615,1.87719298 Z" id="Path"></path>
                <path d="M15.15,13.6140351 L15.4788462,13.3333333 C17.2995059,11.724347 18.0081946,9.26075391 17.3057692,6.98245614 C16.9316245,6.11816052 16.4132914,5.31820038 15.7711538,4.61403509 C14.2396141,4.33506202 12.7403959,3.91196874 11.2951923,3.35087719 C11.1125,5.96491228 14.1817308,7.64912281 15.1317308,10.1052632 C15.5555807,11.2384166 15.562029,12.4768682 15.15,13.6140351 L15.15,13.6140351 Z" id="Path"></path>
                <path d="M66.4865385,93.8421053 C63.1183795,91.8101004 60.5480427,88.7617711 59.1788462,85.1754386 C57.6259615,81.6666667 56.6942308,77.9824561 55.1230769,74.5263158 C53.3805167,70.7257022 50.9004762,67.2783771 47.8153846,64.3684211 C47.3007183,63.7908169 46.6401946,63.3498288 45.8971154,63.0877193 C44.4810597,62.8991265 43.0467179,63.2799722 41.9326923,64.1403509 C40.1001213,65.3319791 38.0573275,66.1939319 35.9038462,66.6842105 C33.7080314,67.1383782 31.4233662,66.4755523 29.8567308,64.9298246 C28.1759615,63 28.4134615,60.1578947 28.9067308,57.6842105 C29.9663462,52.2807018 31.7201923,46.9649123 31.7384615,41.4736842 C31.7567308,35.9824561 29.5644231,30.0701754 24.5951923,27.4385965 C20.2105769,25.0350877 14.7663462,25.6842105 9.97980769,24.3684211 C7.48260191,23.7153429 5.15522102,22.5679769 3.14711538,21 L2.76346154,20.6666667 C2.3572968,20.8263729 1.96083404,21.0079477 1.57596154,21.2105263 C0.790384615,21.6140351 -0.05,22.3333333 0.169230769,23.1578947 C0.326457144,23.556503 0.606971315,23.8993458 0.973076923,24.1403509 C2.98684077,25.6960551 5.31274048,26.8367188 7.80576923,27.4912281 C12.6836538,28.7719298 18.1278846,28.1754386 22.5125,30.5789474 C27.4817308,33.2807018 29.6557692,39.2105263 29.6557692,44.6140351 C29.6557692,50.0175439 27.8288462,55.4210526 26.8240385,60.8070175 C26.3307692,63.2807018 26.0932692,66.0701754 27.7740385,68.0526316 C29.3311335,69.6133649 31.6246316,70.2787534 33.8211538,69.8070175 C35.9733858,69.3221262 38.0161047,68.4661493 39.85,67.2807018 C40.966161,66.4233893 42.3965806,66.0372549 43.8144231,66.2105263 C44.5208502,66.4917332 45.1471786,66.9307993 45.6413462,67.4912281 C48.7186575,70.4074628 51.19761,73.8532754 52.9490385,77.6491228 C54.5201923,81.1578947 55.4519231,84.8245614 57.0048077,88.2982456 C58.3504556,91.9248163 60.9234809,95.0133969 64.3125,97.0701754 C67.7653846,98.8245614 72.5519231,98.8245614 75.2740385,95.9649123 C75.9796233,95.1975696 76.5309287,94.3112438 76.9,93.3508772 C73.8580561,95.5388379 69.7371433,95.7332313 66.4865385,93.8421053 L66.4865385,93.8421053 Z" id="Path"></path>
                <path d="M82.0884615,80.5964912 C84.8105769,77.2982456 88.3730769,74.4912281 90.9307692,71.0175439 C91.4378626,70.3279056 91.9074024,69.6134975 92.3375,68.877193 C89.0490385,72.8947368 84.5365385,76.1403509 82.0884615,80.5964912 Z" id="Path"></path>
            </g>
            <g id="Group" opacity="0.1" transform="translate(1026.500000, 122.500000)" fill="#000000">
                <path d="M448.043244,0.735172414 L22.7050763,0.735172414 C10.442844,0.764699652 0.50692455,10.6671475 0.46740458,22.897931 L0.46740458,290.948966 C0.50692455,303.179749 10.442844,313.082197 22.7050763,313.111724 L356.360038,313.111724 C356.360038,313.111724 365.007023,358.889655 336.585229,363.802759 C336.585229,363.802759 400.188206,368.357241 389.078359,313.111724 L448.025267,313.111724 C460.284564,313.082152 470.215314,303.176849 470.244962,290.948966 L470.244962,22.897931 C470.215359,10.6770226 460.29552,0.774590962 448.043244,0.735172414 Z" id="Path"></path>
                <g opacity="0.2" transform="translate(62.919847, 71.724138)" id="Rectangle">
                    <rect x="0.161793893" y="0.16137931" width="344.549084" height="20.9434483" rx="5.67"></rect>
                    <rect x="0.161793893" y="93.7613793" width="284.307824" height="20.9434483" rx="5.67"></rect>
                    <rect x="0.161793893" y="46.9613793" width="204.669275" height="20.9434483" rx="5.67"></rect>
                </g>
            </g>
            <path d="M1482.24051,122.5 L1055.79554,122.5 C1043.49848,122.539458 1033.53957,132.469525 1033.5,144.730968 L1033.5,413.389611 C1033.53962,425.648118 1043.5014,435.573013 1055.79554,435.602607 L1390.31873,435.602607 C1390.31873,435.602607 1398.98821,481.484306 1370.49246,486.408546 C1370.49246,486.408546 1434.26094,490.973353 1423.12219,435.602607 L1482.22249,435.602607 C1494.51368,435.572968 1504.47028,425.645212 1504.5,413.389611 L1504.5,144.730968 C1504.47037,132.479416 1494.52758,122.549366 1482.24051,122.5 Z" id="Path" fill="#FFFFFF"></path>
            <g id="Group" opacity="0.2" transform="translate(1096.500000, 192.500000)" fill="#08070E">
                <rect id="Rectangle" x="0.3234375" y="0.0365625" width="344.389063" height="21.3525" rx="5.67"></rect>
                <rect id="Rectangle" x="0.3234375" y="95.4829687" width="284.175781" height="21.3525" rx="5.67"></rect>
                <rect id="Rectangle" x="0.3234375" y="47.7689062" width="204.574219" height="21.3525" rx="5.67"></rect>
            </g>
            <g id="Group" opacity="0.1" transform="translate(846.500000, 659.500000)" fill="#000000">
                <path d="M485.092606,0.558914027 L24.6739437,0.558914027 C11.4004791,0.598273854 0.650009301,11.3252797 0.61056338,24.5697738 L0.61056338,314.850317 C0.650009301,328.094811 11.4004791,338.821817 24.6739437,338.861176 L385.858099,338.861176 C385.858099,338.861176 395.214085,388.423891 364.470423,393.745701 C364.470423,393.745701 433.302465,398.673303 421.270775,338.861176 L485.092606,338.861176 C498.36607,338.821817 509.11654,328.094811 509.155986,314.850317 L509.155986,24.5697738 C509.11654,11.3252797 498.36607,0.598273854 485.092606,0.558914027 Z" id="Path"></path>
                <g opacity="0.2" transform="translate(68.239437, 128.013575)" id="Rectangle">
                    <rect x="0.143661972" y="50.9782805" width="372.982394" height="22.6848869" rx="5.67"></rect>
                    <rect x="0.143661972" y="0.286696833" width="161.727465" height="22.6848869" rx="5.67"></rect>
                </g>
            </g>
            <path d="M1330.51398,654.5 L871.486019,654.5 C858.255227,654.539329 847.539319,665.258064 847.5,678.492346 L847.5,968.549064 C847.539319,981.783345 858.255227,992.50208 871.486019,992.541409 L1231.509,992.541409 C1231.509,992.541409 1240.83491,1042.06591 1210.19009,1047.40152 C1210.19009,1047.40152 1278.81874,1052.32532 1266.82573,992.541409 L1330.51398,992.541409 C1343.74477,992.50208 1354.46068,981.783345 1354.5,968.549064 L1354.5,678.492346 C1354.46068,665.258064 1343.74477,654.539329 1330.51398,654.5 L1330.51398,654.5 Z" id="Path" fill="#FFFFFF"></path>
            <g id="Group" opacity="0.2" transform="translate(911.500000, 783.500000)" fill="#08070E">
                <rect id="Rectangle" x="0.521052632" y="51.1785714" width="371.673684" height="22.6071429" rx="5.67"></rect>
                <rect id="Rectangle" x="0.521052632" y="0.660714286" width="161.16" height="22.6071429" rx="5.67"></rect>
            </g>
            <path d="M1084.99794,1417.01831 L1062.5476,1408.92869 C1056.352,1403.86388 1058.33598,1398.11322 1061.45118,1393.87496 C1063.62892,1391.13931 1066.87247,1389.49088 1070.3443,1389.35533 C1071.87119,1389.17138 1073.33902,1388.64894 1074.64294,1387.82533 C1076.04666,1387.0261 1077.24026,1385.89836 1078.12361,1384.53673 C1079.77687,1381.90675 1080.6635,1378.85934 1080.6819,1375.74366 C1080.6819,1375.74366 1105.34248,1368.44542 1112.00796,1375.74366 C1113.2095,1377.06283 1114.21756,1378.54934 1115.00134,1380.15778 C1117.21812,1385.20036 1118.28855,1390.6808 1118.13395,1396.19633 C1118.13395,1396.19633 1119.4044,1404.12768 1121.42319,1413.16695 C1123.44198,1422.20622 1084.99794,1417.01831 1084.99794,1417.01831 Z" id="Path" fill="#2D293D"></path>
            <path d="M1200.97181,1401.98891 L1178.54886,1393.89824 C1172.36082,1388.83278 1174.325,1383.08137 1177.45379,1378.86015 C1179.61841,1376.11108 1182.86433,1374.45922 1186.33606,1374.33993 C1187.2199,1374.25862 1188.08379,1374.0267 1188.89123,1373.65398 C1189.49073,1373.41022 1190.0717,1373.12216 1190.62944,1372.79215 C1196.88701,1369.27447 1196.73057,1360.74409 1196.73057,1360.74409 C1196.73057,1360.74409 1221.34367,1353.44489 1228.01841,1360.74409 C1228.92411,1361.72534 1229.71179,1362.81166 1230.365,1363.98035 C1234.60624,1371.36749 1234.13692,1381.217 1234.13692,1381.217 C1234.13692,1381.217 1235.38843,1389.14937 1237.42214,1398.18982 C1239.45585,1407.23026 1200.97181,1401.98891 1200.97181,1401.98891 Z" id="Path" fill="#2D293D"></path>
            <path d="M1113.58337,1373.75802 C1114.7541,1375.07744 1115.73632,1376.56423 1116.5,1378.17298 L1116.5,1378.17298 L1080.5,1382.5 C1082.11087,1379.86952 1082.97477,1376.82152 1082.9927,1373.70525 C1082.9927,1373.70525 1107.02096,1366.45838 1113.58337,1373.75802 Z" id="Path" fill="#000000" opacity="0.1"></path>
            <path d="M1230.5,1367.51668 L1230.5,1375.17588 C1224.4431,1385.59239 1195.04226,1383.31378 1186.5,1378.08638 C1187.13496,1377.821 1187.75028,1377.5074 1188.341,1377.14812 C1194.96862,1373.31852 1194.80293,1364.03174 1194.80293,1364.03174 C1194.80293,1364.03174 1220.87155,1356.08532 1227.941,1364.03174 C1228.92371,1365.08386 1229.78273,1366.25371 1230.5,1367.51668 Z" id="Path" fill="#000000" opacity="0.1"></path>
            <path d="M1235.09417,1336.37634 C1233.32876,1339.47114 1231.81778,1342.70449 1230.57616,1346.04442 L1230.57616,1371.51025 C1224.14737,1382.2327 1190.64626,1378.65855 1186.12825,1372.79694 C1181.61024,1366.93533 1176.78865,1351.85242 1181.94954,1349.27903 C1187.11043,1346.70564 1191.28914,1333.80296 1191.28914,1333.80296 C1191.28914,1333.80296 1185.80681,1335.08965 1177.11009,1324.77822 C1168.41337,1314.4668 1170.98489,1291.57436 1172.60994,1286.08804 C1174.235,1280.60172 1172.60994,1262.23058 1172.60994,1262.23058 C1172.60994,1262.23058 1172.93138,1249.34577 1170.34201,1245.14614 C1167.75264,1240.94651 1162.28817,1217.10693 1162.28817,1217.10693 C1162.28817,1217.10693 1162.28817,1209.04722 1157.78802,1204.84759 C1153.28787,1200.64796 1150.37706,1184.22474 1150.37706,1184.22474 C1147.72391,1180.12358 1146.56936,1175.23054 1147.10909,1170.3749 C1148.09127,1162.31519 1141.64462,1153.61214 1141.64462,1153.61214 L1130.69783,1118.79991 L1120.37606,1092.69073 L1114.62587,1107.82726 C1114.62587,1107.82726 1113.00081,1143.28284 1114.30443,1150.71707 C1115.60804,1158.15131 1117.51882,1177.79127 1117.51882,1177.79127 C1117.51882,1177.79127 1111.07218,1190.69395 1113.94727,1201.64873 C1116.82237,1212.6035 1115.87591,1236.13928 1115.87591,1236.13928 C1115.87591,1236.13928 1118.76886,1284.81922 1116.19735,1288.6793 C1113.62583,1292.53938 1113.94727,1302.22533 1113.94727,1302.22533 C1113.94727,1302.22533 1127.14414,1330.58622 1122.87614,1334.39269 C1118.60814,1338.19916 1119.96533,1348.90374 1119.96533,1348.90374 C1119.96533,1348.90374 1128.8942,1348.90374 1125.12622,1352.76383 C1121.35823,1356.62391 1118.53671,1376.99657 1118.53671,1376.99657 L1079.58898,1381.5 C1079.58898,1381.5 1076.01744,1376.99657 1070.85655,1365.05891 C1065.69566,1353.12124 1071.82087,1354.33645 1077.01747,1353.13911 C1082.21407,1351.94177 1078.91039,1348.61781 1072.80304,1344.75773 C1066.6957,1340.89765 1070.21367,1332.2482 1070.21367,1332.2482 C1070.21367,1332.2482 1079.55327,1316.45045 1076.33888,1315.14589 C1073.12448,1313.84132 1072.76733,1291.62797 1072.76733,1291.62797 C1072.76733,1291.62797 1066.32069,1265.17926 1067.92788,1258.10244 C1069.53508,1251.02562 1062.767,1233.92331 1062.767,1233.92331 L1060.51692,1213.60426 C1053.60957,1202.09449 1051.07392,1188.48081 1053.37383,1175.25362 L1053.37383,1143.92619 C1053.37383,1143.92619 1044.44496,1083.32646 1043.06991,1052.69599 C1042.24845,1033.03816 1042.48061,1006.32138 1042.74847,989.612222 C1042.90919,980.247946 1043.06991,974.046794 1043.06991,974.046794 L1182.27098,959.5 C1182.48365,966.45418 1183.32642,973.374707 1184.78892,980.176463 C1186.19968,987.825146 1188.36047,997.725544 1191.93202,1010.10998 C1201.91449,1045.56555 1195.78929,1071.9964 1195.78929,1071.9964 L1194.50353,1116.81625 C1194.50353,1116.81625 1206.75394,1146.78551 1204.16457,1157.1148 C1202.6231,1163.23215 1201.76071,1169.501 1201.59305,1175.80761 C1201.59305,1175.80761 1228.96896,1241.25032 1226.07601,1260.2648 C1223.18306,1279.27928 1235.00488,1309.26641 1235.00488,1309.26641 C1235.00488,1309.26641 1238.30856,1330.56835 1235.09417,1336.37634 Z" id="Path" fill="#575988"></path>
            <path d="M1155.5,1168.80368 L1199.5,1163.5 C1199.5,1163.5 1174.57965,1186.51058 1155.5,1168.80368 Z" id="Path" fill="#000000" opacity="0.05"></path>
            <path d="M1192.02112,1119.5 C1192.02112,1119.5 1193.42807,1135.48095 1184.5,1141.5 C1184.51737,1141.5 1200.49757,1138.7381 1192.02112,1119.5 Z" id="Path" fill="#000000" opacity="0.1"></path>
            <path d="M1189.5,1073.5 C1189.5,1073.5 1153.36676,1102.72798 1140.30194,1100.36395 C1127.23713,1097.99993 1189.5,1073.5 1189.5,1073.5 Z" id="Path" fill="#000000" opacity="0.1"></path>
            <path d="M1102.5,1183.5 C1102.5,1183.5 1076.29914,1189.47803 1075.51625,1200.05321 C1074.73336,1210.62838 1102.5,1183.5 1102.5,1183.5 Z" id="Path" fill="#000000" opacity="0.1"></path>
            <path d="M1108.74582,1316.5 C1108.74582,1316.5 1074.52192,1324.12488 1084.23585,1329.21448 C1093.94977,1334.30408 1109.9681,1338.49777 1109.9681,1338.49777 C1109.9681,1338.49777 1120.93647,1339.18401 1108.74582,1316.5 Z" id="Path" fill="#000000" opacity="0.05"></path>
            <g id="Group" opacity="0.05" transform="translate(1041.500000, 969.500000)" fill="#000000">
                <path d="M32.2721818,363.951092 C30.3390418,362.72489 29.0624854,360.692198 28.7978182,358.418777 L28.4038182,359.099127 C28.4038182,359.099127 24.822,367.818341 30.9827273,371.631878 C31.6990909,372.079476 32.3617273,372.527074 32.9706364,372.956769 C34.1168182,372.741921 35.3346364,372.580786 36.5524545,372.294323 C41.7102727,371.041048 38.415,367.818341 32.2721818,363.951092 Z" id="Path"></path>
                <path d="M81.3789091,361.355022 C82.4355455,360.38821 82.3997273,357.899563 81.755,354.712664 C80.1976133,357.580075 79.4486121,360.81656 79.588,364.076419 C79.9878456,363.053966 80.5979771,362.126833 81.3789091,361.355022 L81.3789091,361.355022 Z" id="Path"></path>
                <path d="M75.5226364,200.685153 C74.111075,204.501627 73.2429514,208.497461 72.9437273,212.555459 C73.6733544,209.748342 74.6626167,207.015169 75.8987273,204.391266 C75.8987273,204.391266 75.7554545,202.941048 75.5226364,200.685153 Z" id="Path"></path>
                <path d="M162.865273,183.730131 C163.129325,182.555449 163.249601,181.353039 163.223455,180.149345 C162.739909,182.548472 162.399636,184.786463 162.166818,186.755895 C162.292182,185.806987 162.525,184.786463 162.865273,183.730131 Z" id="Path"></path>
                <path d="M74.5913636,315.503057 C75.3335338,313.191532 75.6609393,310.767005 75.5584545,308.341485 C74.3884796,311.219302 73.780563,314.294474 73.7675455,317.400873 C73.9660009,316.737884 74.2425451,316.100813 74.5913636,315.503057 L74.5913636,315.503057 Z" id="Path"></path>
                <path d="M82.5967273,376.394323 C80.5888867,382.877705 79.103654,389.511429 78.1552727,396.231878 L39.0955455,400.761572 C39.0955455,400.761572 35.5137273,396.231878 30.338,384.289956 C29.8902727,383.233624 29.5320909,382.30262 29.2455455,381.443231 C26.8994545,382.517467 25.9860909,385.024017 29.0485455,392.042358 C34.2242727,403.984279 37.7881818,408.513974 37.7881818,408.513974 L76.9016364,403.984279 C76.9016364,403.984279 79.8029091,383.645415 83.6712727,379.760262 C85.5517273,377.862445 84.3339091,376.895633 82.5967273,376.394323 Z" id="Path"></path>
                <path d="M30.9827273,318.403493 C30.9827273,318.403493 31.3050909,340.693886 34.5645455,341.982969 L34.5645455,341.982969 C36.1942727,338.29476 37.2867273,334.821397 35.8360909,334.212664 C32.5945455,332.923581 32.2542727,310.633188 32.2542727,310.633188 C32.2542727,310.633188 25.807,284.153275 27.4188182,277.045415 C29.0306364,269.937555 22.2430909,252.821397 22.2430909,252.821397 L19.9865455,232.482533 C13.0489336,220.948755 10.5054165,207.300362 12.8229091,194.042795 L12.8229091,162.710917 C12.8229091,162.710917 3.86836364,101.99869 2.48936364,71.4008734 C1.66554545,51.7065502 1.89836364,24.850655 2.167,8.2 C2.167,5.17423581 2.25654545,2.48864629 2.31027273,0.232751092 L1.19990909,0.340174672 C1.19990909,0.340174672 1.02081818,6.55283843 0.877545455,15.9524017 C0.591,32.6746725 0.358181818,59.4947598 1.19990909,79.1353712 C2.48936364,109.822707 11.5334545,170.534934 11.5334545,170.534934 L11.5334545,201.866812 C9.215962,215.124379 11.759479,228.772772 18.6970909,240.30655 L20.9715455,260.520087 C20.9715455,260.520087 27.7590909,277.636245 26.1472727,284.744105 C24.5354545,291.851965 30.9827273,318.403493 30.9827273,318.403493 Z" id="Path"></path>
                <path d="M145.994909,392.042358 C142.821618,387.449714 140.711006,382.208342 139.816273,376.69869 C135.822545,380.279476 140.407273,394.262445 144.705455,399.79476 C149.218545,405.595633 182.816,409.158515 189.281182,398.505677 L189.281182,392.346725 C180.541545,401.012227 150.328909,397.538865 145.994909,392.042358 Z" id="Path"></path>
                <path d="M195.101636,355.554148 C193.318011,358.647868 191.80216,361.888338 190.570636,365.240175 L190.570636,369.734061 C191.304909,368.068996 192.361545,365.866812 193.812182,363.252838 C194.843599,360.721171 195.325829,357.999496 195.227,355.267686 C195.171685,355.356668 195.129464,355.453144 195.101636,355.554148 L195.101636,355.554148 Z" id="Path"></path>
                <path d="M147.982818,360.638865 C149.215235,358.152385 150.28021,355.586416 151.170636,352.958079 C151.170636,352.958079 145.672545,354.247162 136.950818,344.006114 C130.593091,336.486463 130.234909,322.288646 131.148273,313.01441 C129.518545,318.493013 126.939636,341.427948 135.661364,351.758515 C141.374364,358.436681 145.672545,360.20917 147.982818,360.638865 Z" id="Path"></path>
                <path d="M131.130364,289.023144 C131.699415,295.386066 131.914656,301.775666 131.775091,308.162445 C131.940427,307.148397 132.161642,306.144249 132.437727,305.154585 C134.067455,299.675983 132.437727,281.270742 132.437727,281.270742 C132.437727,281.270742 132.760091,268.344105 130.181182,264.154585 C127.602273,259.965066 122.104182,236.045415 122.104182,236.045415 C122.104182,236.045415 122.104182,227.970742 117.591091,223.781223 C113.078,219.591703 110.158818,203.102183 110.158818,203.102183 C107.505032,198.991229 106.359431,194.087447 106.917273,189.226638 C107.884364,181.151965 101.437091,172.432751 101.437091,172.432751 L90.4409091,137.537991 L80.1073636,111.380349 L74.2869091,126.562882 C74.2869091,126.562882 74.2869091,128.478603 74.0899091,131.468559 L78.8179091,119.132751 L89.1514545,145.290393 L100.183455,180.185153 C100.183455,180.185153 106.648636,188.904367 105.681545,196.979039 C105.123704,201.839848 106.269305,206.74363 108.923091,210.854585 C108.923091,210.854585 111.824364,227.326201 116.337455,231.533624 C120.850545,235.741048 120.868455,243.797817 120.868455,243.797817 C120.868455,243.797817 126.366545,267.699563 128.945455,271.906987 C131.524364,276.11441 131.130364,289.023144 131.130364,289.023144 Z" id="Path"></path>
            </g>
            <path d="M1197.98546,668.091137 L1195.79967,679.934536 L1195.92824,685.208268 L1196.02468,689.11407 L1183.92246,690.5 L1182.57241,687.692142 L1182.57241,687.692142 C1180.06518,682.6164 1174.87392,672.284924 1173.18636,670.701004 C1170.95235,668.595111 1166.96649,635.638783 1171.75595,637.582684 C1174.67917,638.850633 1177.07861,641.287662 1178.49012,644.422337 C1178.49012,644.422337 1202.26061,647.554178 1197.98546,668.091137 Z" id="Path" fill="#FFCDD3"></path>
            <path d="M1196.5,688.482741 L1183.00538,690.5 L1181.5,686.413085 L1181.5,686.413085 C1185.2473,680.188175 1191.4766,678.686889 1196.39247,682.823936 L1196.5,688.482741 Z" id="Path" fill="#000000" opacity="0.1"></path>
            <path d="M1201.5,693.318978 L1183.86729,697.5 L1183.51215,694.809603 L1182.5,687.53826 C1182.5,687.53826 1189.4785,678.0128 1199.56449,685.156895 L1200.43458,688.792566 L1201.5,693.318978 Z" id="Path" fill="#DCE6F2"></path>
            <path d="M910.5,668.464735 L891.079753,678.5 L889.245924,674.966456 C887.412095,671.238567 884.643014,665.620232 883.891144,663.606112 C882.735832,660.514261 874.630308,656.539025 874.630308,656.539025 C854.293146,637.811242 878.518025,621.715949 878.518025,621.715949 C891.354827,596.857468 905.640354,630.161119 905.640354,630.161119 C905.640354,630.161119 907.620889,647.705165 906.227179,648.888902 C904.833469,650.072639 904.815131,654.860591 904.815131,654.860591 C906.675609,658.30845 908.245527,661.894758 909.509732,665.584897 C910.188249,667.369337 910.5,668.464735 910.5,668.464735 Z" id="Path" fill="#FFCDD3"></path>
            <path d="M912.5,666.234225 L892.398188,675.5 L890.5,672.237403 C893.3283,670.214593 903.407679,663.20001 906.710526,663.509957 C908.29095,663.676868 909.886187,663.715101 911.474978,663.624148 C912.177308,665.22282 912.5,666.234225 912.5,666.234225 Z" id="Path" fill="#000000" opacity="0.1"></path>
            <path d="M915.5,674.375915 L894.232738,685.5 L893.803818,680.64861 L893.5,677.294329 C893.5,677.294329 905.831438,666.094441 909.477254,666.511358 C911.320173,666.796767 913.192419,666.796767 915.035337,666.511358 L915.267669,670.566816 L915.5,674.375915 Z" id="Path" fill="#DCE6F2"></path>
            <path d="M1148.5,747.031156 C1148.5,747.031156 1055.23053,757.444576 1072.67364,751.846918 C1084.79939,747.937443 1089.61377,740.313966 1090.63772,731.837513 C1091.4461,724.729375 1089.61377,717.088128 1087.15269,710.513101 C1084.952,704.692033 1082.15922,699.107169 1078.81736,693.84452 C1078.81736,693.84452 1150.11677,655.051862 1135.85329,690.290451 C1133.65344,695.622235 1132.29039,701.255329 1131.81138,706.994573 C1131.36038,712.689044 1131.96926,718.417047 1133.60778,723.894169 C1136.30616,732.823695 1141.46244,740.834646 1148.5,747.031156 L1148.5,747.031156 Z" id="Path" fill="#FFCDD3"></path>
            <path d="M1138.54699,692.860098 C1136.26957,698.021306 1134.85846,703.474185 1134.36255,709.029818 C1127.4071,714.431193 1119.78213,714.069954 1109.99986,714.069954 C1102.56087,714.069954 1094.15481,715.790137 1088.12923,712.349771 C1085.85095,706.714932 1082.9597,701.308741 1079.5,696.214455 C1079.5,696.214455 1153.31338,658.697264 1138.54699,692.860098 Z" id="Path" fill="#000000" opacity="0.1"></path>
            <circle id="Oval" fill="#FFCDD3" cx="1106.5" cy="675.5" r="39"></circle>
            <path d="M1148.5,747.332759 C1148.5,747.332759 1055.23053,757.260665 1072.67364,751.923992 C1084.79939,748.196791 1089.61377,740.928751 1090.63772,732.847503 C1095.27245,728.103794 1104.5958,724.681546 1110.5958,722.868771 C1116.06663,721.134948 1121.97336,721.046149 1127.5,722.614644 C1129.67423,723.222419 1131.74362,724.124052 1133.64371,725.291452 C1136.33506,733.794656 1141.4784,741.425505 1148.5,747.332759 L1148.5,747.332759 Z" id="Path" fill="#000000" opacity="0.1"></path>
            <path d="M1201.5,692.978777 L1182.87512,697.5 L1182.5,694.590691 C1186.57713,688.72419 1193.72334,686.162159 1200.37463,688.18235 L1201.5,692.978777 Z" id="Path" fill="#000000" opacity="0.1"></path>
            <path d="M915.5,674.560914 L893.934926,683.5 L893.5,679.601523 C900.497093,676.447175 907.766316,673.739046 915.246293,671.5 L915.5,674.560914 Z" id="Path" fill="#000000" opacity="0.1"></path>
            <path d="M1184.5,978.389428 C1148.85991,983.572205 1098.11268,990.303295 1090.06263,988.054165 C1083.39562,986.179891 1062.06476,986.424361 1043.5,986.962197 C1043.65958,978.422024 1043.81916,972.766604 1043.81916,972.766604 L1181.99987,959.5 C1182.2089,965.853095 1183.04572,972.17558 1184.5,978.389428 Z" id="Path" fill="#000000" opacity="0.1"></path>
            <path d="M1223.5,969.718259 C1223.5,969.718259 1105.32485,990.196922 1092.63263,986.288505 C1079.9404,982.380088 1014.83696,986.612706 1014.83696,986.612706 C985.543094,1006.42496 997.771187,977.192881 997.771187,977.192881 C997.771187,977.192881 995.20061,961.919437 998.735153,949.581808 C1001.13682,940.532639 1002.78486,931.296818 1003.66209,921.970734 C1003.66209,921.970734 1003.01945,902.464673 1006.55399,897.925866 C1010.08854,893.387059 1014.28358,860.876957 1014.28358,860.876957 C1014.28358,860.876957 1017.51465,838.795302 1017.19333,833.860251 C1017.20732,827.676047 1017.52905,821.496451 1018.15729,815.344802 L1022.33448,792.596735 C998.181765,789.354731 924.759653,743.858598 924.759653,743.858598 C921.189407,728.603165 893.859173,692.851058 893.859173,692.851058 C893.461634,689.844748 892.700251,686.898961 891.592066,684.079634 C889.664133,678.892426 918.654532,668.5 918.654532,668.5 C918.654532,668.5 940.218819,695.138472 944.73518,702.288893 C949.251542,709.439315 964.692856,722.749545 964.692856,722.749545 C967.112788,722.499719 969.55716,722.820334 971.833349,723.686124 L972.208225,723.794191 L972.208225,723.794191 C977.390771,725.862833 982.249114,728.677764 986.632019,732.151359 C993.891203,731.975238 1000.93347,734.655895 1006.26837,739.625981 C1006.26837,739.625981 1019.47828,737.680778 1021.72754,739.950181 C1023.97679,742.219585 1035.25877,739.950181 1035.25877,739.950181 C1035.25877,739.950181 1046.5229,715.905313 1053.93116,722.893634 C1061.33942,729.881956 1092.75759,729.557755 1092.75759,729.557755 C1096.95263,723.93828 1107.14568,719.903786 1113.51857,717.832505 C1118.95643,715.997501 1124.82351,715.903139 1130.31658,717.562338 C1132.69021,718.248177 1134.9301,719.338561 1136.93938,720.786331 L1156.0045,739.625981 C1156.0045,739.625981 1161.48482,732.421526 1160.84218,730.854557 C1160.19954,729.287588 1167.28647,727.936753 1167.28647,727.936753 C1167.28647,727.936753 1176.62267,725.000937 1180.15721,724.028336 C1183.69176,723.055735 1186.94068,726.928129 1187.2977,727.270341 C1187.1906,726.856085 1184.76283,718.985218 1185.70894,712.987509 C1186.65506,706.9898 1181.83523,701.28027 1181.83523,701.28027 C1193.11721,673.344996 1218.55521,696.741463 1218.55521,696.741463 C1218.55521,696.741463 1221.44711,712.014908 1218.87653,717.850516 C1216.30595,723.686124 1221.44711,736.059776 1220.80446,739.30178 C1220.16182,742.543785 1222.08975,748.073204 1222.08975,754.251024 C1222.08975,760.428844 1218.87653,772.118072 1216.93075,777.30528 C1214.98496,782.492488 1199.54365,794.199727 1199.54365,794.199727 C1199.54365,794.199727 1198.57968,812.733187 1191.81407,823.449814 C1185.04845,834.16644 1189.04712,870.891149 1189.04712,870.891149 C1189.04712,870.891149 1195.49142,899.546868 1203.59588,908.714537 C1211.70034,917.882206 1223.5,969.718259 1223.5,969.718259 Z" id="Path" fill="#656691"></path>
            <path d="M1045.73545,758.5 C1045.73545,758.5 1042.57903,748.278481 1039.75403,747.350814 C1036.92311,746.206848 1034.16562,744.85815 1031.5,743.313743 L1033.33072,739.5 C1033.33072,739.5 1044.0152,742.695298 1045.73545,746.096745 C1047.45569,749.498192 1045.73545,758.5 1045.73545,758.5 Z" id="Path" fill="#000000" opacity="0.1"></path>
            <path d="M982.5,731.443489 C981.86419,734.097052 953.5,736.5 953.5,736.5 L967.841048,724.5 L967.841048,724.5 L968.194275,724.603194 L968.194275,724.603194 C973.33407,726.293813 978.152832,728.597908 982.5,731.443489 Z" id="Path" fill="#000000" opacity="0.1"></path>
            <circle id="Oval" fill="#575988" cx="901" cy="690" r="2.5"></circle>
            <circle id="Oval" fill="#575988" cx="903" cy="695" r="2.5"></circle>
            <circle id="Oval" fill="#575988" cx="905" cy="698" r="2.5"></circle>
            <circle id="Oval" fill="#575988" cx="910" cy="703" r="2.5"></circle>
            <circle id="Oval" fill="#575988" cx="1216" cy="703" r="2.5"></circle>
            <circle id="Oval" fill="#575988" cx="1216" cy="710" r="2.5"></circle>
            <circle id="Oval" fill="#575988" cx="1216" cy="715" r="2.5"></circle>
            <path d="M1048.5,845.501172 C1048.19662,845.118151 1120.9846,938.77603 1177.5,884.660562 C1177.5,884.660562 1088.20674,896.990207 1048.5,845.501172 Z" id="Path" fill="#000000" opacity="0.1"></path>
            <path d="M1004.5,894.5 C1004.5,894.5 1046.15166,895.647003 1050.5,907.812181 L1050.5,920.481345 C1048.09417,921.839552 1045.16783,921.839552 1042.762,920.481345 C1038.56773,918.169961 1013.36788,905.187978 1004.5,911.426977 L1004.5,894.5 Z" id="Path" fill="#000000" opacity="0.1"></path>
            <path d="M1004.5,894.5 C1004.5,894.5 1044.33969,895.649268 1048.5,907.835161 L1048.5,920.477112 C1046.19468,921.840963 1043.39209,921.840963 1041.08677,920.477112 C1037.08054,918.178576 1012.99183,905.171777 1004.5,911.355935 L1004.5,894.5 Z" id="Path" fill="#656691"></path>
            <path d="M1028.5,799.5 C1033.01934,809.510672 1038.77299,818.967957 1045.63837,827.670387 C1053.12466,837.288396 1062.19732,845.674739 1072.5,852.5 C1072.5,852.5 1029.22697,805.328956 1028.5,799.5 Z" id="Path" fill="#000000" opacity="0.1"></path>
            <path d="M1014.5,743.5 C1014.5,743.5 1022.04959,776.331346 1041.5,787.5 L1014.5,743.5 Z" id="Path" fill="#000000" opacity="0.1"></path>
            <path d="M1006.1244,746.510054 C1005.95112,745.905872 999.886358,772.67867 1029.49972,787.5 C1029.56903,787.5 1016.91967,782.836473 1006.1244,746.510054 Z" id="Path" fill="#000000" opacity="0.1"></path>
            <path d="M1194.5108,731.516489 C1194.03607,731.516489 1209.35051,739.702512 1213.5,743.5 C1213.5,743.5 1203.54825,730.984545 1194.5108,731.516489 Z" id="Path" fill="#000000" opacity="0.1"></path>
            <path d="M1095.01145,710.904842 C1095.32627,712.993582 1096.42176,714.885027 1098.07673,716.197239 C1099.21647,716.740272 1100.46341,717.020894 1101.72586,717.018473 C1113.67679,717.748459 1126.1021,718.277699 1137.14074,713.678788 C1139.23087,712.962344 1141.11131,711.739794 1142.61445,710.120107 C1144.58498,707.711154 1144.9499,704.444467 1145.75271,701.451525 C1147.28535,695.593388 1150.58782,690.373989 1153.05098,684.807847 C1157.05294,675.392289 1158.39102,665.057786 1156.91907,654.933175 C1156.63034,651.825603 1155.61128,648.830304 1153.94502,646.191595 C1150.77027,641.665682 1145.00464,639.840718 1140.80813,636.245537 C1136.61162,632.650357 1133.9295,627.120714 1129.03966,624.419766 C1124.6242,621.974314 1119.24172,622.266308 1114.26065,623.105792 C1104.42657,624.753508 1094.99967,628.272327 1086.49071,633.471591 C1083.66263,635.205307 1080.54262,637.212768 1077.36787,636.61053 C1074.5033,636.063041 1072.42329,633.654087 1070.58047,631.409381 C1068.25338,636.780728 1067.25212,642.633135 1067.66116,648.4728 C1067.80755,649.324285 1067.80755,650.194516 1067.66116,651.046001 C1067.24853,652.069385 1066.62712,652.995486 1065.83659,653.765198 C1062.88079,657.177882 1061.03798,662.598027 1064.01203,666.04721 C1065.27098,667.561931 1067.22327,668.383165 1068.46397,669.916135 C1070.6717,672.671832 1069.92363,676.613756 1069.86889,680.154187 C1069.74346,681.377092 1070.05361,682.605035 1070.74468,683.62162 C1072.04366,684.825737 1073.87801,685.261922 1075.57979,684.771348 C1077.24671,684.274933 1078.99426,684.107578 1080.72508,684.278607 C1082.56582,684.882881 1084.14366,686.100342 1085.19527,687.72779 C1090.5595,694.735655 1092.69425,702.455255 1095.01145,710.904842 Z" id="Path" fill="#2D293D"></path>
            <g id="Group" opacity="0.1" transform="translate(1066.500000, 627.500000)" fill="#000000">
                <path d="M80.8993478,74.3395833 C79.4271579,75.9480792 77.5653971,77.1661992 75.4863043,77.88125 C64.6602174,82.34375 52.2823913,81.8302083 40.463913,81.1041667 C39.2135784,81.1238003 37.9764872,80.8506249 36.8552174,80.3072917 C35.2144063,79.0375611 34.1300109,77.2004569 33.823913,75.171875 C31.5323913,66.990625 29.4213043,59.5 23.9541304,52.7 C22.9141798,51.1208247 21.3538179,49.939475 19.5334783,49.353125 C17.8218725,49.1783218 16.0919308,49.340878 14.4452174,49.83125 C12.7787634,50.2803782 10.9940533,49.8592015 9.71782609,48.715625 C9.03312365,47.723107 8.72648872,46.5256189 8.85173913,45.3333333 C8.85173913,41.915625 9.64565217,38.0729167 7.4623913,35.4166667 C6.23543478,33.9114583 4.32282609,33.1322917 3.05978261,31.6625 C1.40265177,29.4463623 1.11195211,26.5186397 2.30195652,24.0302083 C0.245,27.253125 -0.657173913,31.396875 1.76065217,34.2125 C3.00565217,35.6822917 4.93630435,36.4791667 6.16326087,37.9666667 C8.34652174,40.640625 7.60673913,44.465625 7.5526087,47.9010417 C7.42856723,49.0876731 7.73527994,50.2791938 8.41869565,51.265625 C9.70327738,52.4340261 11.5172981,52.8572735 13.2002174,52.38125 C14.8486662,51.8995593 16.5768471,51.7371685 18.2884783,51.903125 C20.1088179,52.489475 21.6691798,53.6708247 22.7091304,55.25 C28.1221739,62.05 30.2873913,69.540625 32.578913,77.7395833 C32.5919319,79.4192129 33.3213611,81.0166666 34.5900692,82.1440255 C35.8587773,83.2713845 37.550708,83.8255225 39.255,83.671875 C51.0734783,84.3802083 63.361087,84.89375 74.2773913,80.43125 C76.3443519,79.7360566 78.2039495,78.5497696 79.6904348,76.978125 C80.4270987,76.0539859 80.9948609,75.011452 81.3684783,73.896875 C81.2211071,74.0533691 81.0644582,74.2011953 80.8993478,74.3395833 Z" id="Path"></path>
                <path d="M5.53173913,18.9479167 C6.06276367,18.4007891 6.46875463,17.7487801 6.7226087,17.0354167 C6.86702237,16.2091589 6.86702237,15.3647995 6.7226087,14.5385417 C6.38916222,9.88005456 7.00249427,5.20298204 8.52695652,0.779166667 L8.31043478,0.53125 C5.99951361,5.74046168 5.0089403,11.4216041 5.42347826,17.0885417 C5.51359641,17.7041625 5.54981577,18.3262281 5.53173913,18.9479167 L5.53173913,18.9479167 Z" id="Path"></path>
            </g>
            <path d="M1087.5,729.998799 C1087.5,729.998799 1136.13017,733.687832 1140.5,729.5" id="Path" fill="#000000" opacity="0.1"></path>
            <path d="M1730.97507,694.511365 C1731.76115,695.215116 1732.43346,695.644233 1732.49552,695.455421 C1732.55757,695.26661 1731.96801,694.562859 1731.19227,693.859107 C1730.41653,693.155356 1730.71649,693.670296 1730.65443,693.859107 C1730.59237,694.047919 1730.19933,693.807613 1730.97507,694.511365 Z" id="Path" fill="#FFD037"></path>
        </g>
    </g>
</svg>